<?xml version="1.0" encoding="UTF-8"?>
<svg version="1.1" xmlns="http://www.w3.org/2000/svg" width="108" height="142">
<path d="M0 0 C35.64 0 71.28 0 108 0 C108 46.86 108 93.72 108 142 C72.36 142 36.72 142 0 142 C0 95.14 0 48.28 0 0 Z " fill="#CB8970" transform="translate(0,0)"/>
<path d="M0 0 C2.18042596 1.01234062 4.03645763 2.02844577 5.9375 3.51171875 C8.24259565 5.17505482 10.30207875 5.93326674 13 6.8125 C28.06340393 12.06340393 28.06340393 12.06340393 33 17 C34.63532783 22.52591168 34.34319762 28.59392196 34.51757812 34.31445312 C34.55173828 35.14267578 34.58589844 35.97089844 34.62109375 36.82421875 C34.6461499 37.57791748 34.67120605 38.33161621 34.69702148 39.1081543 C34.84874814 41.23967587 34.84874814 41.23967587 37 43 C37.3403125 44.11375 37.3403125 44.11375 37.6875 45.25 C39.09774088 48.20479042 40.12242646 48.97155257 42.6875 50.875 C45.95864114 53.57813965 45.95864114 53.57813965 46.3125 57.1875 C44.69052413 63.37041655 41.33507143 70.44328571 36 74 C33.73828125 74.1953125 33.73828125 74.1953125 31.3125 74.125 C30.50425781 74.10695313 29.69601563 74.08890625 28.86328125 74.0703125 C28.24839844 74.04710938 27.63351563 74.02390625 27 74 C28.3304418 79.10002692 30.10675461 83.82769774 32.1953125 88.66796875 C33 91 33 91 33 95 C26.3247966 95.02526945 19.64960543 95.04283268 12.97436523 95.05493164 C10.70157409 95.05997325 8.4287862 95.06680637 6.15600586 95.07543945 C2.89696449 95.08751261 -0.36203417 95.09322987 -3.62109375 95.09765625 C-4.64400009 95.10281754 -5.66690643 95.10797882 -6.72080994 95.11329651 C-7.66170975 95.11337204 -8.60260956 95.11344757 -9.57202148 95.11352539 C-10.40475082 95.115746 -11.23748016 95.11796661 -12.09544373 95.12025452 C-14 95 -14 95 -15 94 C-15.23192865 92.48530552 -15.41215238 90.96245438 -15.5625 89.4375 C-15.64628906 88.61121094 -15.73007812 87.78492188 -15.81640625 86.93359375 C-15.87699219 86.29550781 -15.93757813 85.65742188 -16 85 C-17.98 84.34 -19.96 83.68 -22 83 C-22.95261487 78.23692563 -23.08333357 73.8333472 -23 69 C-21.515 68.505 -21.515 68.505 -20 68 C-20.66 67.34 -21.32 66.68 -22 66 C-18.535 65.505 -18.535 65.505 -15 65 C-17.31 64.67 -19.62 64.34 -22 64 C-22 63.67 -22 63.34 -22 63 C-19.36 63 -16.72 63 -14 63 C-14 62.34 -14 61.68 -14 61 C-16.64 61 -19.28 61 -22 61 C-22 58.36 -22 55.72 -22 53 C-19.525 52.505 -19.525 52.505 -17 52 C-18.65 51.67 -20.3 51.34 -22 51 C-22 50.67 -22 50.34 -22 50 C-18.7 50.33 -15.4 50.66 -12 51 C-12 50.34 -12 49.68 -12 49 C-15.3 48.67 -18.6 48.34 -22 48 C-22 47.34 -22 46.68 -22 46 C-19.69 46 -17.38 46 -15 46 C-17.31 45.67 -19.62 45.34 -22 45 C-22 44.34 -22 43.68 -22 43 C-20.02 43 -18.04 43 -16 43 C-17.98 42.67 -19.96 42.34 -22 42 C-22 41.34 -22 40.68 -22 40 C-18.7 40 -15.4 40 -12 40 C-15.3 39.34 -18.6 38.68 -22 38 C-22 37.67 -22 37.34 -22 37 C-18.04 37.33 -14.08 37.66 -10 38 C-10.495 36.515 -10.495 36.515 -11 35 C-10.67 34.34 -10.34 33.68 -10 33 C-13.63 32.67 -17.26 32.34 -21 32 C-21 31.34 -21 30.68 -21 30 C-18.69 30 -16.38 30 -14 30 C-16.31 29.67 -18.62 29.34 -21 29 C-21 28.34 -21 27.68 -21 27 C-18.03 27 -15.06 27 -12 27 C-13.32 26.34 -14.64 25.68 -16 25 C-14.35 24.67 -12.7 24.34 -11 24 C-12.32 23.34 -13.64 22.68 -15 22 C-13.9171875 21.9071875 -13.9171875 21.9071875 -12.8125 21.8125 C-9.12811217 20.74812129 -7.53894072 18.8134208 -5 16 C-4.34 15.34 -3.68 14.68 -3 14 C-2.3839535 11.64319825 -1.85273616 9.26368079 -1.375 6.875 C-1.11460938 5.59367187 -0.85421875 4.31234375 -0.5859375 2.9921875 C-0.39257812 2.00476562 -0.19921875 1.01734375 0 0 Z " fill="#422F15" transform="translate(60,47)"/>
<path d="M0 0 C17.49 0 34.98 0 53 0 C53 46.86 53 93.72 53 142 C48.05 142 43.1 142 38 142 C37.0234375 138.71223958 36.046875 135.42447917 35.0703125 132.13671875 C34.11234547 128.89088275 34.11234547 128.89088275 32 126 C31.875 123.3125 31.875 123.3125 32 121 C32.60328125 120.97421875 33.2065625 120.9484375 33.828125 120.921875 C38.79845788 120.5917203 38.79845788 120.5917203 43.25 118.5625 C46.95627047 113.1354611 49.9376119 107.52609834 51 101 C50.443125 100.773125 49.88625 100.54625 49.3125 100.3125 C44.50699359 97.58505042 41.73373229 94.20119687 40 89 C39.67 88.67 39.34 88.34 39 88 C38.86766384 86.65635063 38.79681302 85.30649985 38.75390625 83.95703125 C38.72103516 83.13009766 38.68816406 82.30316406 38.65429688 81.45117188 C38.59378223 79.71169768 38.53641676 77.97211066 38.48242188 76.23242188 C38.21707945 69.40437593 38.21707945 69.40437593 36 63 C33.64420528 61.16093327 33.64420528 61.16093327 30.6875 59.9375 C29.61628906 59.4425 28.54507813 58.9475 27.44140625 58.4375 C24.03078942 57.01286096 20.59417143 55.71205208 17.125 54.4375 C12.1589475 52.60131252 8.73536864 50.73536864 5 47 C4.91363281 47.92941406 4.82726562 48.85882813 4.73828125 49.81640625 C3.88187103 57.35124477 3.05575858 62.27901003 -2 68 C-2 68.33 -2 68.66 -2 69 C-6.51617599 69.07654536 -10.59085217 69.10228696 -15 68 C-14.67 65.69 -14.34 63.38 -14 61 C-13.34 61.33 -12.68 61.66 -12 62 C-12.33 63.32 -12.66 64.64 -13 66 C-11.02 66 -9.04 66 -7 66 C-7.99 65.01 -8.98 64.02 -10 63 C-9.21753906 62.30132812 -8.43507813 61.60265625 -7.62890625 60.8828125 C-6.60662828 59.9637002 -5.58450065 59.04442066 -4.5625 58.125 C-4.04623047 57.66480469 -3.52996094 57.20460937 -2.99804688 56.73046875 C0.74419831 53.61699257 0.74419831 53.61699257 2.10546875 49.1875 C2.13253906 48.465625 2.15960938 47.74375 2.1875 47 C2.57560715 42.9572172 3.72887096 40.45585481 5.9375 37.0625 C11.15659581 28.93973459 12.085933 19.52596921 11 10 C9.1421557 5.764115 7.37529156 3.95753317 3.25 2.125 C2.1775 1.75375 1.105 1.3825 0 1 C0 0.67 0 0.34 0 0 Z " fill="#FAF2F0" transform="translate(55,0)"/>
<path d="M0 0 C14.85 0 29.7 0 45 0 C43.68 1.32 42.36 2.64 41 4 C40.34 4.99 39.68 5.98 39 7 C38.47792969 7.56203125 37.95585938 8.1240625 37.41796875 8.703125 C35.43091809 11.92181862 35.43424812 15.06972825 35.3125 18.75 C35.27833984 19.44738281 35.24417969 20.14476563 35.20898438 20.86328125 C35.12691705 22.57497108 35.06177081 24.2874576 35 26 C34.34 26 33.68 26 33 26 C33.66 28.64 34.32 31.28 35 34 C36.32 34.33 37.64 34.66 39 35 C38.34 41.27 37.68 47.54 37 54 C37.99 54.495 37.99 54.495 39 55 C38.29875 54.88140625 37.5975 54.7628125 36.875 54.640625 C30.97838705 53.83945476 27.17443769 53.7171901 22.05078125 56.8359375 C18.930186 58.6072468 15.52467328 59.53814143 12.1015625 60.58203125 C9.58838123 62.27772791 9.00660983 63.70664731 8.34082031 66.62573242 C7.36775804 73.40440763 7.20416146 80.29151231 6.87695312 87.125 C6.80541016 88.34703125 6.73386719 89.5690625 6.66015625 90.828125 C6.60480713 91.9409082 6.54945801 93.05369141 6.49243164 94.20019531 C5.94382705 97.31938098 5.27864038 97.96210325 3 100 C2.67367639 102.58413022 2.53530026 104.85847049 2.5625 107.4375 C2.54316406 108.75621094 2.52382813 110.07492188 2.50390625 111.43359375 C2.70900293 115.02140018 2.70900293 115.02140018 4.82421875 117.42578125 C7.52324751 119.37857944 9.71589511 119.70144501 13 120 C13 120.66 13 121.32 13 122 C15.31 122 17.62 122 20 122 C20 128.6 20 135.2 20 142 C13.4 142 6.8 142 0 142 C0 95.14 0 48.28 0 0 Z " fill="#FBF2F0" transform="translate(0,0)"/>
<path d="M0 0 C1.50156874 3.00313748 1.09281204 5.79067522 1.0625 9.125 C1.05347656 10.40632813 1.04445313 11.68765625 1.03515625 13.0078125 C1.02355469 13.99523437 1.01195313 14.98265625 1 16 C3.97851562 15.90234375 3.97851562 15.90234375 6.95703125 15.8046875 C9 16 9 16 12 18 C9.36 17.67 6.72 17.34 4 17 C4.01252808 17.58199158 4.02505615 18.16398315 4.03796387 18.76361084 C4.17028285 24.93024567 4.29956867 31.09693924 4.42724609 37.26367188 C4.47500179 39.55209904 4.52348066 41.84051126 4.57275391 44.12890625 C4.81952176 55.61116568 5.04719345 67.09304285 5.09375 78.578125 C5.1002356 79.4224408 5.10672119 80.26675659 5.11340332 81.13665771 C5.11495046 83.09147005 5.06342407 85.04621622 5 87 C4 88 4 88 0.62109375 88.09765625 C-0.77347492 88.09191424 -2.16801597 88.07890228 -3.5625 88.0625 C-6.016875 88.041875 -8.47125 88.02125 -11 88 C-11 81.4 -11 74.8 -11 68 C-13.31 68 -15.62 68 -18 68 C-18 67.34 -18 66.68 -18 66 C-18.886875 66.103125 -19.77375 66.20625 -20.6875 66.3125 C-24 66 -24 66 -26.67578125 63.95703125 C-29.63205627 60.19585446 -29.61200106 58.10704494 -29.5 53.375 C-29.4896875 52.06273437 -29.479375 50.75046875 -29.46875 49.3984375 C-29 46 -29 46 -27.50976562 44.67114258 C-25.28136727 42.20455352 -25.52017503 40.1423744 -25.375 36.86328125 C-25.30796875 35.64576172 -25.2409375 34.42824219 -25.171875 33.17382812 C-25.11515625 31.89958984 -25.0584375 30.62535156 -25 29.3125 C-24.24174467 12.53610073 -24.24174467 12.53610073 -21 7 C-18.35617809 5.12034529 -15.61341425 4.06051931 -12.5625 3 C-11.79873047 2.70222656 -11.03496094 2.40445313 -10.24804688 2.09765625 C-6.51276494 0.68676647 -4.08014867 0 0 0 Z " fill="#453117" transform="translate(31,54)"/>
<path d="M0 0 C4.37087273 1.32994076 7.27744994 3.27744994 10.5 6.5 C12.66158143 11.54369001 12.86724903 16.58555335 12 22 C10.47265625 23.86328125 10.47265625 23.86328125 9 25 C8.01 24.67 7.02 24.34 6 24 C6 24.66 6 25.32 6 26 C4.68 26 3.36 26 2 26 C2 25.34 2 24.68 2 24 C0.7625 24.2475 0.7625 24.2475 -0.5 24.5 C-4.41272317 25.05896045 -8.05183173 25.06807187 -12 25 C-12 24.34 -12 23.68 -12 23 C-14.31 23.66 -16.62 24.32 -19 25 C-19.30411728 22.43758606 -19.56886039 19.88077438 -19.8125 17.3125 C-19.90208984 16.59126953 -19.99167969 15.87003906 -20.08398438 15.12695312 C-20.44091144 11.01289911 -20.30153278 9.36865137 -17.6484375 6.125 C-16.77445313 5.42375 -15.90046875 4.7225 -15 4 C-14.278125 3.236875 -13.55625 2.47375 -12.8125 1.6875 C-8.57569168 -0.85458499 -4.81628226 -0.71841044 0 0 Z " fill="#CB8468" transform="translate(55,0)"/>
<path d="M0 0 C0.33 0 0.66 0 1 0 C1.33 2.64 1.66 5.28 2 8 C2.99 7.67 3.98 7.34 5 7 C6.90849948 8.90849948 6.13059633 12.31478774 6.1328125 14.84375 C6.13424759 15.87018616 6.13424759 15.87018616 6.13571167 16.9173584 C6.1363933 18.36661877 6.13454023 19.81588218 6.13037109 21.26513672 C6.12502252 23.49062928 6.1303166 25.71592001 6.13671875 27.94140625 C6.13605797 29.34635461 6.1347768 30.75130285 6.1328125 32.15625 C6.13168457 33.44337891 6.13055664 34.73050781 6.12939453 36.05664062 C6 39 6 39 5 40 C0.66469082 40.14393457 -3.66157731 40.04212061 -8 40 C-8 33.4 -8 26.8 -8 20 C-10.31 20 -12.62 20 -15 20 C-15 19.34 -15 18.68 -15 18 C-15.9075 18.061875 -16.815 18.12375 -17.75 18.1875 C-21 18 -21 18 -23.375 17 C-25.95575901 13.82368122 -25.26265854 11.00554268 -25 7 C-23.02 6.67 -21.04 6.34 -19 6 C-18.67 7.65 -18.34 9.3 -18 11 C-17.34 10.01 -16.68 9.02 -16 8 C-15.01 8 -14.02 8 -13 8 C-11.68 10.31 -10.36 12.62 -9 15 C-6.0280615 13.87548273 -3.66559313 12.77706209 -1 11 C-0.41651248 8.3443272 -0.41651248 8.3443272 -0.3125 5.375 C-0.24675781 4.37210937 -0.18101563 3.36921875 -0.11328125 2.3359375 C-0.07589844 1.56507812 -0.03851562 0.79421875 0 0 Z " fill="#432F16" transform="translate(28,102)"/>
<path d="M0 0 C3.63 0 7.26 0 11 0 C11 1.65 11 3.3 11 5 C7.7 5 4.4 5 1 5 C2.299375 5.12375 3.59875 5.2475 4.9375 5.375 C7.15234375 5.5859375 7.15234375 5.5859375 9 6 C9.33 6.66 9.66 7.32 10 8 C6.37 7.67 2.74 7.34 -1 7 C-1 7.66 -1 8.32 -1 9 C2.3 9.33 5.6 9.66 9 10 C9 10.33 9 10.66 9 11 C5.7 10.67 2.4 10.34 -1 10 C-1 10.66 -1 11.32 -1 12 C0.6396875 11.938125 0.6396875 11.938125 2.3125 11.875 C6 12 6 12 9 14 C1.25 14.125 1.25 14.125 -1 13 C-1 13.66 -1 14.32 -1 15 C2.3 15.33 5.6 15.66 9 16 C9 16.66 9 17.32 9 18 C7.35 18 5.7 18 4 18 C4.99 18.66 5.98 19.32 7 20 C4.36 20 1.72 20 -1 20 C-1 20.66 -1 21.32 -1 22 C1.31 22 3.62 22 6 22 C6 22.33 6 22.66 6 23 C3.69 23 1.38 23 -1 23 C-1 23.66 -1 24.32 -1 25 C1.64 25 4.28 25 7 25 C7 25.33 7 25.66 7 26 C4.36 26 1.72 26 -1 26 C-1 26.66 -1 27.32 -1 28 C1.64 28 4.28 28 7 28 C7 29.66666667 7 31.33333333 7 33 C4.03 33.495 4.03 33.495 1 34 C2.98 34.33 4.96 34.66 7 35 C7 35.33 7 35.66 7 36 C4.03 36 1.06 36 -2 36 C-1.67 40.62 -1.34 45.24 -1 50 C0.65 50 2.3 50 4 50 C7.30243306 53.30243306 6.64997776 57.44971086 7 62 C3.37 62 -0.26 62 -4 62 C-4 42.53 -4 23.06 -4 3 C-3.01 2.67 -2.02 2.34 -1 2 C-0.67 1.34 -0.34 0.68 0 0 Z " fill="#A2745B" transform="translate(39,80)"/>
<path d="M0 0 C2.86574598 0.95524866 5.54814878 2.39907439 8.25 3.75 C8.25 10.35 8.25 16.95 8.25 23.75 C-0.75 23.75 -0.75 23.75 -3.1875 21.625 C-4.7693534 18.71438974 -5.81291468 15.92167339 -6.75 12.75 C-7.08 12.42 -7.41 12.09 -7.75 11.75 C-8.18784542 7.89696032 -8.05585252 6.20877878 -5.875 2.9375 C-2.65322581 -0.37903226 -2.65322581 -0.37903226 0 0 Z " fill="#C78469" transform="translate(67.75,62.25)"/>
<path d="M0 0 C0.11928251 14.50134529 0.11928251 14.50134529 -2.625 18.17578125 C-4.5625 19.5 -4.5625 19.5 -8 21 C-11.16115776 19.63016497 -11.9927092 19.0109362 -14 16 C-14 15.01 -14 14.02 -14 13 C-15.32 13 -16.64 13 -18 13 C-18.29296875 10.69921875 -18.29296875 10.69921875 -18 8 C-15.98828125 6.26953125 -15.98828125 6.26953125 -13.3125 4.8125 C-12.44238281 4.32394531 -11.57226562 3.83539063 -10.67578125 3.33203125 C-3.98240469 0 -3.98240469 0 0 0 Z " fill="#C78469" transform="translate(29,97)"/>
<path d="M0 0 C3.76983963 3.88071727 4.41750399 6.87107433 4.4375 12.25 C4.46263672 13.81427734 4.46263672 13.81427734 4.48828125 15.41015625 C4.125 18.1875 4.125 18.1875 2.60546875 20.05859375 C2.11691406 20.43113281 1.62835938 20.80367187 1.125 21.1875 C1.06441406 20.56101562 1.00382812 19.93453125 0.94140625 19.2890625 C0.85761719 18.47179687 0.77382813 17.65453125 0.6875 16.8125 C0.60628906 16.00039063 0.52507813 15.18828125 0.44140625 14.3515625 C0.23409886 12.14477195 0.23409886 12.14477195 -0.875 10.1875 C-6.44491247 8.17285081 -11.99354503 7.63718871 -17.875 7.1875 C-17.875 5.5375 -17.875 3.8875 -17.875 2.1875 C-18.865 2.1875 -19.855 2.1875 -20.875 2.1875 C-20.545 1.1975 -20.215 0.2075 -19.875 -0.8125 C-13.45150677 -3.56743364 -5.95644851 -3.75515232 0 0 Z " fill="#A76241" transform="translate(62.875,3.8125)"/>
<path d="M0 0 C-3.41553261 2.27702174 -6.07030029 2.71824212 -10.0390625 3.4375 C-10.68617187 3.623125 -11.33328125 3.80875 -12 4 C-12.33 4.66 -12.66 5.32 -13 6 C-12.01 6 -11.02 6 -10 6 C-10 7.65 -10 9.3 -10 11 C-6.7 11 -3.4 11 0 11 C0 11.66 0 12.32 0 13 C-4.62 13 -9.24 13 -14 13 C-14.99 16.96 -15.98 20.92 -17 25 C-17.66 25 -18.32 25 -19 25 C-19.30411728 22.43758606 -19.56886039 19.88077438 -19.8125 17.3125 C-19.90208984 16.59126953 -19.99167969 15.87003906 -20.08398438 15.12695312 C-20.44091144 11.01289911 -20.30153278 9.36865137 -17.6484375 6.125 C-16.77445313 5.42375 -15.90046875 4.7225 -15 4 C-14.278125 3.236875 -13.55625 2.47375 -12.8125 1.6875 C-8.64993191 -0.81004085 -4.73793546 -0.33119549 0 0 Z " fill="#9D5B38" transform="translate(55,0)"/>
<path d="M0 0 C0.33 0 0.66 0 1 0 C2.48185826 7.95737585 1.59813572 16.21233745 -2.31640625 23.42578125 C-3.6875 25.3125 -3.6875 25.3125 -6 28 C-6 28.33 -6 28.66 -6 29 C-10.51617599 29.07654536 -14.59085217 29.10228696 -19 28 C-18.67 25.69 -18.34 23.38 -18 21 C-17.34 21.33 -16.68 21.66 -16 22 C-16.33 23.32 -16.66 24.64 -17 26 C-15.02 26 -13.04 26 -11 26 C-11.99 25.01 -12.98 24.02 -14 23 C-13.21753906 22.30132812 -12.43507813 21.60265625 -11.62890625 20.8828125 C-10.60662828 19.9637002 -9.58450065 19.04442066 -8.5625 18.125 C-8.04623047 17.66480469 -7.52996094 17.20460938 -6.99804688 16.73046875 C-3.17936479 13.28616726 -1.95908674 11.54995409 -1.5 6.5 C-1.11111111 2.22222222 -1.11111111 2.22222222 0 0 Z " fill="#EFE0D7" transform="translate(59,40)"/>
<path d="M0 0 C0.33 0 0.66 0 1 0 C1 1.98 1 3.96 1 6 C1.78375 5.95875 2.5675 5.9175 3.375 5.875 C6 6 6 6 8 8 C8.4140625 10.3828125 8.4140625 10.3828125 8.625 13.125 C8.69976562 14.03507813 8.77453125 14.94515625 8.8515625 15.8828125 C8.90054688 16.58148438 8.94953125 17.28015625 9 18 C6.03 18 3.06 18 0 18 C0 12.06 0 6.12 0 0 Z " fill="#A05A36" transform="translate(37,124)"/>
<path d="M0 0 C0 1.65 0 3.3 0 5 C2.64 5.33 5.28 5.66 8 6 C7.67 6.66 7.34 7.32 7 8 C6.34 8 5.68 8 5 8 C5.3403125 9.3921875 5.3403125 9.3921875 5.6875 10.8125 C6 14 6 14 4.5625 15.875 C4.046875 16.24625 3.53125 16.6175 3 17 C3 15.02 3 13.04 3 11 C1.02 11.33 -0.96 11.66 -3 12 C-3 13.98 -3 15.96 -3 18 C-3.33 18 -3.66 18 -4 18 C-4.0809723 15.56183415 -4.14046972 13.12635616 -4.1875 10.6875 C-4.21263672 9.99720703 -4.23777344 9.30691406 -4.26367188 8.59570312 C-4.33807332 3.46200317 -4.33807332 3.46200317 -2.55078125 1.01953125 C-1 0 -1 0 0 0 Z " fill="#5C3317" transform="translate(6,97)"/>
<path d="M0 0 C0.99 0 1.98 0 3 0 C3 0.66 3 1.32 3 2 C4.5778125 1.9690625 4.5778125 1.9690625 6.1875 1.9375 C9.32704904 1.98896802 11.96883396 2.26517187 15 3 C15 3.33 15 3.66 15 4 C6.42857143 4.14285714 6.42857143 4.14285714 3 3 C3 3.66 3 4.32 3 5 C5.64 5 8.28 5 11 5 C11.33 5.66 11.66 6.32 12 7 C9.03 6.67 6.06 6.34 3 6 C2.67 6.99 2.34 7.98 2 9 C0.68 8.67 -0.64 8.34 -2 8 C-2.125 5.125 -2.125 5.125 -2 2 C-1.34 1.34 -0.68 0.68 0 0 Z " fill="#DBC5B2" transform="translate(36,74)"/>
<path d="M0 0 C3.63 0 7.26 0 11 0 C11 1.65 11 3.3 11 5 C7.7 5 4.4 5 1 5 C2.299375 5.12375 3.59875 5.2475 4.9375 5.375 C7.15234375 5.5859375 7.15234375 5.5859375 9 6 C9.33 6.66 9.66 7.32 10 8 C6.04 7.67 2.08 7.34 -2 7 C-2 6.01 -2 5.02 -2 4 C-2.66 3.67 -3.32 3.34 -4 3 C-3.01 2.67 -2.02 2.34 -1 2 C-0.67 1.34 -0.34 0.68 0 0 Z " fill="#C39B85" transform="translate(39,80)"/>
<path d="M0 0 C1.79240663 0.11389875 3.58394835 0.24147687 5.375 0.375 C6.87160156 0.47941406 6.87160156 0.47941406 8.3984375 0.5859375 C11 1 11 1 13 3 C13 4.32 13 5.64 13 7 C9.7 7 6.4 7 3 7 C3 5.35 3 3.7 3 2 C2.01 2 1.02 2 0 2 C0 1.34 0 0.68 0 0 Z " fill="#472C10" transform="translate(42,4)"/>
<path d="M0 0 C0.33 0.99 0.66 1.98 1 3 C1.66 3 2.32 3 3 3 C3 4.65 3 6.3 3 8 C1.35 8.33 -0.3 8.66 -2 9 C-2.22429688 8.36578125 -2.44859375 7.7315625 -2.6796875 7.078125 C-3.83785757 4.77983843 -3.83785757 4.77983843 -6.3828125 4.171875 C-7.28773437 4.03265625 -8.19265625 3.8934375 -9.125 3.75 C-10.03507812 3.60046875 -10.94515625 3.4509375 -11.8828125 3.296875 C-12.58148438 3.19890625 -13.28015625 3.1009375 -14 3 C-14 2.67 -14 2.34 -14 2 C-4.58997722 -0.29612756 -4.58997722 -0.29612756 0 0 Z " fill="#A15D38" transform="translate(57,1)"/>
<path d="M0 0 C-2.85478326 1.90318884 -4.41941308 2.4619099 -7.6875 3.125 C-8.49574219 3.29257812 -9.30398437 3.46015625 -10.13671875 3.6328125 C-10.75160156 3.75398437 -11.36648437 3.87515625 -12 4 C-12.13277344 4.62777344 -12.26554687 5.25554688 -12.40234375 5.90234375 C-13.10611712 8.37245029 -14.21651289 9.21651289 -16 11 C-16 11.99 -16 12.98 -16 14 C-16.99 14 -17.98 14 -19 14 C-19.8125 11.8125 -19.8125 11.8125 -20 9 C-17.875 6.4375 -17.875 6.4375 -15 4 C-14.278125 3.236875 -13.55625 2.47375 -12.8125 1.6875 C-8.64993191 -0.81004085 -4.73793546 -0.33119549 0 0 Z " fill="#C5947D" transform="translate(55,0)"/>
<path d="M0 0 C1.32 0 2.64 0 4 0 C4.33 0.66 4.66 1.32 5 2 C7.31 2 9.62 2 12 2 C12 2.99 12 3.98 12 5 C12.66 5.33 13.32 5.66 14 6 C11.75 7.625 11.75 7.625 9 9 C5.63894049 8.03969728 4.98866286 6.98299429 3 4 C3 3.01 3 2.02 3 1 C2.01 0.67 1.02 0.34 0 0 Z " fill="#A05D3A" transform="translate(12,109)"/>
<path d="M0 0 C0.33 0 0.66 0 1 0 C2.02575676 5.27823181 1.80488532 9.21948164 0.5625 14.4375 C0.27503906 15.67371094 -0.01242188 16.90992188 -0.30859375 18.18359375 C-0.53675781 19.11300781 -0.76492187 20.04242188 -1 21 C-1.33 21 -1.66 21 -2 21 C-2 19.35 -2 17.7 -2 16 C-3.32 16.33 -4.64 16.66 -6 17 C-5.360625 16.195625 -4.72125 15.39125 -4.0625 14.5625 C-1.73895407 11.13445161 -1.41811656 8.02435816 -1.17578125 3.953125 C-1 2 -1 2 0 0 Z " fill="#E9D7CB" transform="translate(59,40)"/>
<path d="M0 0 C1.8125 0.0625 1.8125 0.0625 4 1 C5.625 4.375 5.625 4.375 7 8 C8.70892499 11.31460705 8.70892499 11.31460705 12.125 11.6875 C13.07375 11.790625 14.0225 11.89375 15 12 C15.33 11.34 15.66 10.68 16 10 C16 10.99 16 11.98 16 13 C12.94750899 13.29350875 10.04493177 13.41545701 7 13 C3.43467503 9.89176797 2.29225508 6.47319067 1 2 C0.67 1.34 0.34 0.68 0 0 Z " fill="#985C3E" transform="translate(60,73)"/>
<path d="M0 0 C1.60379341 -0.05416188 3.20811406 -0.09286638 4.8125 -0.125 C5.70582031 -0.14820312 6.59914063 -0.17140625 7.51953125 -0.1953125 C11.05165596 0.08280756 13.08820122 2.05880081 16 4 C10.72 4 5.44 4 0 4 C0 2.68 0 1.36 0 0 Z " fill="#C9A793" transform="translate(35,71)"/>
<path d="M0 0 C0.99 0.33 1.98 0.66 3 1 C2.34 2.98 1.68 4.96 1 7 C-0.65 7.33 -2.3 7.66 -4 8 C-4.25 5.6875 -4.25 5.6875 -4 3 C-2.1875 1.125 -2.1875 1.125 0 0 Z " fill="#BE7F61" transform="translate(15,102)"/>
<path d="M0 0 C-0.33 1.65 -0.66 3.3 -1 5 C-3.64 5 -6.28 5 -9 5 C-9.33 3.68 -9.66 2.36 -10 1 C-2.25 0 -2.25 0 0 0 Z " fill="#5B391D" transform="translate(48,99)"/>
<path d="M0 0 C2.64 0.33 5.28 0.66 8 1 C7.67 2.32 7.34 3.64 7 5 C4.36 5 1.72 5 -1 5 C-0.67 3.35 -0.34 1.7 0 0 Z " fill="#764D33" transform="translate(38,117)"/>
<path d="M0 0 C-0.875 3.875 -0.875 3.875 -2 5 C-3.66617115 5.04063832 -5.33388095 5.042721 -7 5 C-7.33 4.01 -7.66 3.02 -8 2 C-4.91190305 0.23537317 -3.76687864 0 0 0 Z " fill="#D4AB97" transform="translate(25,99)"/>
<path d="M0 0 C0 1.65 0 3.3 0 5 C-2.75 5.25 -2.75 5.25 -6 5 C-8.375 3 -8.375 3 -10 1 C-2.25 0 -2.25 0 0 0 Z " fill="#8A6652" transform="translate(50,80)"/>
<path d="M0 0 C0.99 0 1.98 0 3 0 C3 2.64 3 5.28 3 8 C1.68 7.67 0.36 7.34 -1 7 C-1.04254356 5.00045254 -1.04080783 2.99958364 -1 1 C-0.67 0.67 -0.34 0.34 0 0 Z " fill="#E7D9CD" transform="translate(35,75)"/>
<path d="M0 0 C0.78375 0.04125 1.5675 0.0825 2.375 0.125 C1.1684375 1.176875 1.1684375 1.176875 -0.0625 2.25 C-2.85933811 5.38791593 -3.33808751 7.01258763 -3.625 11.125 C-3.955 11.125 -4.285 11.125 -4.625 11.125 C-4.67899736 9.66707116 -4.71779177 8.20857288 -4.75 6.75 C-4.78480469 5.53183594 -4.78480469 5.53183594 -4.8203125 4.2890625 C-4.51136441 0.86591762 -3.34090594 0.15909076 0 0 Z " fill="#966243" transform="translate(6.625,103.875)"/>
<path d="M0 0 C0.66 0.33 1.32 0.66 2 1 C2.36923077 6.53846154 2.36923077 6.53846154 0.5 8.875 C-0.2425 9.431875 -0.2425 9.431875 -1 10 C-1 8.02 -1 6.04 -1 4 C-2.65 4.33 -4.3 4.66 -6 5 C-2.25 1.125 -2.25 1.125 0 0 Z " fill="#5D391B" transform="translate(10,104)"/>
<path d="M0 0 C2.31 0 4.62 0 7 0 C7 1.65 7 3.3 7 5 C5.35 5.33 3.7 5.66 2 6 C1.34 4.02 0.68 2.04 0 0 Z " fill="#814825" transform="translate(53,4)"/>
<path d="M0 0 C0.99 0.33 1.98 0.66 3 1 C2.67 1.33 2.34 1.66 2 2 C1.76636119 3.84891946 1.58696365 5.70488031 1.4375 7.5625 C1.35371094 8.57441406 1.26992188 9.58632812 1.18359375 10.62890625 C1.12300781 11.41136719 1.06242188 12.19382812 1 13 C-1.11295256 9.83057116 -1.25250929 9.00370047 -1.1875 5.375 C-1.17783203 4.18003906 -1.17783203 4.18003906 -1.16796875 2.9609375 C-1 1 -1 1 0 0 Z " fill="#EADDD1" transform="translate(1,98)"/>
<path d="M0 0 C2.05078125 0.03255208 4.1015625 0.06510417 6.15234375 0.09765625 C6.15234375 0.75765625 6.15234375 1.41765625 6.15234375 2.09765625 C5.16234375 2.09765625 4.17234375 2.09765625 3.15234375 2.09765625 C3.15234375 2.75765625 3.15234375 3.41765625 3.15234375 4.09765625 C1.83234375 4.09765625 0.51234375 4.09765625 -0.84765625 4.09765625 C-0.84765625 3.43765625 -0.84765625 2.77765625 -0.84765625 2.09765625 C-1.50765625 1.76765625 -2.16765625 1.43765625 -2.84765625 1.09765625 C-1.84765625 0.09765625 -1.84765625 0.09765625 0 0 Z " fill="#AF6647" transform="translate(43.84765625,20.90234375)"/>
<path d="M0 0 C3.39914975 1.13304992 4.05254451 2.12518475 6 5 C3.69 5 1.38 5 -1 5 C-1 2 -1 2 0 0 Z " fill="#A37664" transform="translate(43,62)"/>
<path d="M0 0 C3.3 0 6.6 0 10 0 C7.09907498 1.93395001 6.10325263 2.30131941 2.8125 2.625 C1.554375 2.74875 0.29625 2.8725 -1 3 C-0.67 2.01 -0.34 1.02 0 0 Z " fill="#C27E61" transform="translate(45,0)"/>
<path d="M0 0 C1.66611905 -0.042721 3.33382885 -0.04063832 5 0 C5.33 0.33 5.66 0.66 6 1 C5.91062197 2.52519276 5.75462854 4.04681929 5.5625 5.5625 C5.46066406 6.38878906 5.35882813 7.21507812 5.25390625 8.06640625 C5.12822266 9.02353516 5.12822266 9.02353516 5 10 C4.67 10 4.34 10 4 10 C3.67 7.03 3.34 4.06 3 1 C2.01 0.67 1.02 0.34 0 0 Z " fill="#D6A895" transform="translate(28,53)"/>
<path d="M0 0 C0.33 0 0.66 0 1 0 C1 2.31 1 4.62 1 7 C-0.32 7 -1.64 7 -3 7 C-2.25 2.25 -2.25 2.25 0 0 Z " fill="#3A2C0F" transform="translate(33,103)"/>
<path d="M0 0 C0.33 0.66 0.66 1.32 1 2 C0.01 2.495 0.01 2.495 -1 3 C-1.33 3.99 -1.66 4.98 -2 6 C-2.66 6 -3.32 6 -4 6 C-4 4.68 -4 3.36 -4 2 C-5.65 2 -7.3 2 -9 2 C-9 1.67 -9 1.34 -9 1 C-4.545 0.505 -4.545 0.505 0 0 Z " fill="#56371E" transform="translate(76,85)"/>
<path d="M0 0 C0.33 0 0.66 0 1 0 C2.125 6.625 2.125 6.625 1 10 C0.34 10 -0.32 10 -1 10 C-1.125 2.25 -1.125 2.25 0 0 Z " fill="#E0C2B6" transform="translate(59,40)"/>
<path d="M0 0 C1.65 0 3.3 0 5 0 C5 0.66 5 1.32 5 2 C7.31 2 9.62 2 12 2 C12 2.33 12 2.66 12 3 C8.7 3 5.4 3 2 3 C2 2.34 2 1.68 2 1 C1.34 0.67 0.68 0.34 0 0 Z " fill="#C0A998" transform="translate(8,120)"/>
<path d="M0 0 C0.33 0 0.66 0 1 0 C1 1.65 1 3.3 1 5 C-0.32 5.33 -1.64 5.66 -3 6 C-2.42655063 3.13275314 -2.1385485 2.1385485 0 0 Z " fill="#6F4E34" transform="translate(5,97)"/>
<path d="M0 0 C1.32 0 2.64 0 4 0 C4.33 1.98 4.66 3.96 5 6 C4.67 5.01 4.34 4.02 4 3 C1.03 2.505 1.03 2.505 -2 2 C-1.34 1.34 -0.68 0.68 0 0 Z " fill="#7F5035" transform="translate(27,54)"/>
<path d="M0 0 C2.97 0 5.94 0 9 0 C8.01 1.485 8.01 1.485 7 3 C4.69 2.34 2.38 1.68 0 1 C0 0.67 0 0.34 0 0 Z " fill="#F7E8E0" transform="translate(55,0)"/>
</svg>
