<?xml version="1.0" encoding="UTF-8"?>
<svg version="1.1" xmlns="http://www.w3.org/2000/svg" width="128" height="108">
<path d="M0 0 C42.24 0 84.48 0 128 0 C128 35.64 128 71.28 128 108 C85.76 108 43.52 108 0 108 C0 72.36 0 36.72 0 0 Z " fill="#EBEBEC" transform="translate(0,0)"/>
<path d="M0 0 C14.52 0 29.04 0 44 0 C44 0.99 44 1.98 44 3 C42.68 3 41.36 3 40 3 C40 4.32 40 5.64 40 7 C39.01 7 38.02 7 37 7 C37 7.99 37 8.98 37 10 C37.99 10 38.98 10 40 10 C39.67 11.32 39.34 12.64 39 14 C38.34 14 37.68 14 37 14 C37 14.99 37 15.98 37 17 C37.99 17 38.98 17 40 17 C40 17.99 40 18.98 40 20 C39.01 20 38.02 20 37 20 C37 20.99 37 21.98 37 23 C38.32 23 39.64 23 41 23 C41 22.01 41 21.02 41 20 C41.99 20 42.98 20 44 20 C44 20.99 44 21.98 44 23 C44.99 23 45.98 23 47 23 C47 22.01 47 21.02 47 20 C47.99 20 48.98 20 50 20 C50 21.32 50 22.64 50 24 C49.01 24 48.02 24 47 24 C47 24.99 47 25.98 47 27 C44.73192796 28.0067004 42.46092246 29.00551766 40.1875 30 C39.54490234 30.28617188 38.90230469 30.57234375 38.24023438 30.8671875 C35.32243531 32.13711041 33.21734286 33 30 33 C30 32.01 30 31.02 30 30 C29.01 30 28.02 30 27 30 C27 29.01 27 28.02 27 27 C26.01 27 25.02 27 24 27 C24 27.99 24 28.98 24 30 C22.68 30 21.36 30 20 30 C20 31.32 20 32.64 20 34 C19.01 34 18.02 34 17 34 C17 34.99 17 35.98 17 37 C16.01 37 15.02 37 14 37 C14.9567035 39.37936622 15.58000369 40.73415618 17.77734375 42.125 C18.84662109 42.558125 18.84662109 42.558125 19.9375 43 C20.73800781 43.32742187 21.53851562 43.65484375 22.36328125 43.9921875 C23.23339844 44.32476562 24.10351562 44.65734375 25 45 C26.38251953 45.52980469 26.38251953 45.52980469 27.79296875 46.0703125 C32.81053076 47.9389218 37.82686819 49.62049818 43 51 C42.97432674 57.37980426 42.38392703 61.86452021 37.8203125 66.52734375 C33.9665246 69.64510778 30.01386097 72 25 72 C25.33 72.99 25.66 73.98 26 75 C35.18310766 75.28813537 35.18310766 75.28813537 44 73 C46.32694964 72.62468554 48.65976685 72.28082798 51 72 C51 69.36 51 66.72 51 64 C49.68 63.34 48.36 62.68 47 62 C47.75 57.25 47.75 57.25 50 55 C52.71146317 55.23784765 55.31677939 55.58230745 58 56 C59.66572783 56.19566509 61.33241409 56.38335965 63 56.5625 C63.763125 56.64628906 64.52625 56.73007812 65.3125 56.81640625 C66.1478125 56.90728516 66.1478125 56.90728516 67 57 C70 63.5 70 63.5 70 68 C69.01 68 68.02 68 67 68 C67 68.66 67 69.32 67 70 C66.34 70 65.68 70 65 70 C64.79375 70.556875 64.5875 71.11375 64.375 71.6875 C63 74 63 74 60 76.4375 C56.87810749 78.68957797 56.87810749 78.68957797 56 81.625 C55 84 55 84 52.125 85.8125 C49 87 49 87 45 87 C45.33 87.99 45.66 88.98 46 90 C53.65207448 92.64344391 61.36916342 93.51079613 68.8125 89.9375 C69.90304688 89.38642578 69.90304688 89.38642578 71.015625 88.82421875 C73.6313761 87.7377552 75.38517197 87.9878085 78 89 C78 89.66 78 90.32 78 91 C78.99 91 79.98 91 81 91 C81 90.01 81 89.02 81 88 C81.99 88 82.98 88 84 88 C84 87.01 84 86.02 84 85 C83.34 85 82.68 85 82 85 C82 83.68 82 82.36 82 81 C82.66 81 83.32 81 84 81 C84 81.99 84 82.98 84 84 C85.32 84 86.64 84 88 84 C88 83.01 88 82.02 88 81 C88.99 81 89.98 81 91 81 C91 81.99 91 82.98 91 84 C92.32 84 93.64 84 95 84 C95 83.01 95 82.02 95 81 C95.66 81 96.32 81 97 81 C97 81.99 97 82.98 97 84 C98.32 84 99.64 84 101 84 C101 83.01 101 82.02 101 81 C101.99 81 102.98 81 104 81 C104 79.68 104 78.36 104 77 C103.01 77 102.02 77 101 77 C101 76.01 101 75.02 101 74 C102.32 74 103.64 74 105 74 C105 74.99 105 75.98 105 77 C105.99 77 106.98 77 108 77 C108 76.01 108 75.02 108 74 C108.99 74 109.98 74 111 74 C111 73.01 111 72.02 111 71 C111.99 71 112.98 71 114 71 C114 69.68 114 68.36 114 67 C115.98 67.495 115.98 67.495 118 68 C118 68.99 118 69.98 118 71 C118.99 71 119.98 71 121 71 C121 71.99 121 72.98 121 74 C120.01 74 119.02 74 118 74 C118 75.32 118 76.64 118 78 C116.68 78 115.36 78 114 78 C114 78.99 114 79.98 114 81 C113.01 81 112.02 81 111 81 C111 81.99 111 82.98 111 84 C110.01 84 109.02 84 108 84 C108 85.32 108 86.64 108 88 C108.99 88 109.98 88 111 88 C111 87.01 111 86.02 111 85 C111.99 84.67 112.98 84.34 114 84 C114.495 82.515 114.495 82.515 115 81 C115.99 81 116.98 81 118 81 C118 81.99 118 82.98 118 84 C118.99 84 119.98 84 121 84 C121 85.32 121 86.64 121 88 C122.32 88 123.64 88 125 88 C124.67 86.68 124.34 85.36 124 84 C123.34 84 122.68 84 122 84 C122 83.01 122 82.02 122 81 C122.99 81 123.98 81 125 81 C125 81.99 125 82.98 125 84 C125.99 84 126.98 84 128 84 C128 91.92 128 99.84 128 108 C85.76 108 43.52 108 0 108 C0 72.36 0 36.72 0 0 Z " fill="#EAEAEA" transform="translate(0,0)"/>
<path d="M0 0 C-0.08701172 1.53720703 -0.08701172 1.53720703 -0.17578125 3.10546875 C-0.22269957 4.46610011 -0.26819752 5.82678096 -0.3125 7.1875 C-0.3753418 8.19780273 -0.3753418 8.19780273 -0.43945312 9.22851562 C-0.53082594 12.97480103 -0.23440496 14.71104261 2.1484375 17.6484375 C3.08945313 18.42445312 4.03046875 19.20046875 5 20 C5.95777344 20.90621094 6.91554687 21.81242187 7.90234375 22.74609375 C8.91175991 23.64581915 9.92349848 24.54294552 10.9375 25.4375 C11.43701172 25.90865234 11.93652344 26.37980469 12.45117188 26.86523438 C14.12232463 28.39898469 14.12232463 28.39898469 17 30 C20.33807119 29.43786386 20.33807119 29.43786386 23 28 C23.495 29.98 23.495 29.98 24 32 C26.57119406 31.63739571 27.71660837 31.33477583 29.421875 29.3203125 C30.07929688 28.23363281 30.07929688 28.23363281 30.75 27.125 C33.1136872 23.3814954 35.54836842 19.72653707 38.125 16.125 C38.76695313 15.22007813 39.40890625 14.31515625 40.0703125 13.3828125 C41.88984545 11.1360208 43.61091511 9.60334142 46 8 C44.80691312 10.39804527 43.59787254 12.78681325 42.37890625 15.171875 C35.64358399 27.9178091 35.64358399 27.9178091 34 42 C32.125 41.6875 32.125 41.6875 30 41 C29.34 40.01 28.68 39.02 28 38 C24.72226496 38.75150023 24.72226496 38.75150023 23 42 C24.485 42.99 24.485 42.99 26 44 C26.77419355 50.96774194 26.77419355 50.96774194 24.5 54 C20.87920862 55.44831655 17.88716564 55.19435828 14 55 C14.33 53.68 14.66 52.36 15 51 C15.99 51 16.98 51 18 51 C17.81870185 47.56206661 17.81870185 47.56206661 17 44 C15.06402968 42.48705712 15.06402968 42.48705712 13 42 C12.67 42.99 12.34 43.98 12 45 C11.34 45 10.68 45 10 45 C10 44.34 10 43.68 10 43 C8.35 43 6.7 43 5 43 C5.350625 43.680625 5.70125 44.36125 6.0625 45.0625 C7.22620603 48.7087789 6.72845102 51.28489978 6 55 C6.61875 55.0825 7.2375 55.165 7.875 55.25 C10 56 10 56 11.125 57.6875 C12.19290534 60.50982126 12.19665079 62.74066662 12.125 65.75 C12.10695313 66.73484375 12.08890625 67.7196875 12.0703125 68.734375 C12.04710938 69.48203125 12.02390625 70.2296875 12 71 C10.11834677 71.95793255 8.23434404 72.91148272 6.33984375 73.84375 C4.82166818 74.59396697 3.3129682 75.36379502 1.81640625 76.15625 C-6.63315552 80.37350008 -14.14042762 79.62505848 -23 77 C-23.33 75.68 -23.66 74.36 -24 73 C-23.44570313 72.79503906 -22.89140625 72.59007813 -22.3203125 72.37890625 C-21.59585938 72.10949219 -20.87140625 71.84007813 -20.125 71.5625 C-19.40570313 71.29566406 -18.68640625 71.02882813 -17.9453125 70.75390625 C-15.96351155 70.02083146 -15.96351155 70.02083146 -14 69 C-13.773125 68.278125 -13.54625 67.55625 -13.3125 66.8125 C-11.68360072 63.32200154 -9.54348043 61.68394819 -6.55859375 59.33203125 C-4.86950777 58.06350705 -4.86950777 58.06350705 -4 56 C-3.34 56 -2.68 56 -2 56 C-2 55.34 -2 54.68 -2 54 C-1.01 54 -0.02 54 1 54 C0.01 50.7 -0.98 47.4 -2 44 C-3.89492006 43.66151348 -5.79098466 43.32943089 -7.6875 43 C-9.27111328 42.7215625 -9.27111328 42.7215625 -10.88671875 42.4375 C-13.64904062 42.04931926 -16.21742043 41.91740024 -19 42 C-19.99 43.98 -20.98 45.96 -22 48 C-20.35 48.66 -18.7 49.32 -17 50 C-16.90234375 56.15234375 -16.90234375 56.15234375 -17 58 C-18.62160229 59.62160229 -20.65847995 59.58881947 -22.875 60 C-25.69737213 60.52662337 -28.27018179 61.0900606 -31 62 C-33.06145107 62.068991 -35.12501401 62.08467727 -37.1875 62.0625 C-38.81751953 62.04896484 -38.81751953 62.04896484 -40.48046875 62.03515625 C-41.31191406 62.02355469 -42.14335938 62.01195312 -43 62 C-43.33 60.68 -43.66 59.36 -44 58 C-43.11248047 57.65388672 -43.11248047 57.65388672 -42.20703125 57.30078125 C-37.14755526 55.21261253 -33.65666854 53.21070923 -30 49 C-29.34 48.34 -28.68 47.68 -28 47 C-27.32059533 44.57284794 -27.32059533 44.57284794 -26.875 41.875 C-26.70742188 40.96492188 -26.53984375 40.05484375 -26.3671875 39.1171875 C-26.24601562 38.41851562 -26.12484375 37.71984375 -26 37 C-26.67804687 36.91363281 -27.35609375 36.82726563 -28.0546875 36.73828125 C-34.29247213 35.79656584 -39.21937032 34.17236198 -44.76171875 31.17578125 C-47.41938111 29.77969683 -50.11979814 28.83374264 -53 28 C-53 27.01 -53 26.02 -53 25 C-47.2139535 22.46398813 -41.71682359 20.58591782 -35.4921875 19.5 C-32.94929172 18.98982655 -30.58484015 18.25482708 -28.125 17.4375 C-22.49624851 15.66282994 -16.86893692 15.29243844 -11 15 C-11.495 13.515 -11.495 13.515 -12 12 C-10.453125 9.58984375 -10.453125 9.58984375 -8.25 6.9375 C-7.53328125 6.05964844 -6.8165625 5.18179687 -6.078125 4.27734375 C-2.17495712 0 -2.17495712 0 0 0 Z " fill="#44485F" transform="translate(69,14)"/>
<path d="M0 0 C1.485 0.495 1.485 0.495 3 1 C3 1.99 3 2.98 3 4 C3.99 4 4.98 4 6 4 C6 4.99 6 5.98 6 7 C5.01 7 4.02 7 3 7 C3 7.99 3 8.98 3 10 C3.99 10 4.98 10 6 10 C6 11.32 6 12.64 6 14 C6.99 14 7.98 14 9 14 C9 13.01 9 12.02 9 11 C10.32 11 11.64 11 13 11 C13 11.99 13 12.98 13 14 C12.01 14 11.02 14 10 14 C9.67 15.32 9.34 16.64 9 18 C8.01 18 7.02 18 6 18 C6 18.99 6 19.98 6 21 C7.32 21 8.64 21 10 21 C10 21.99 10 22.98 10 24 C10.99 24 11.98 24 13 24 C13 23.01 13 22.02 13 21 C13.99 21 14.98 21 16 21 C16 20.01 16 19.02 16 18 C17.32 18.33 18.64 18.66 20 19 C20 19.66 20 20.32 20 21 C20.99 21 21.98 21 23 21 C23 28.59 23 36.18 23 44 C22.01 44 21.02 44 20 44 C20 43.01 20 42.02 20 41 C19.01 41 18.02 41 17 41 C17 41.99 17 42.98 17 44 C17.66 44 18.32 44 19 44 C19.495 45.98 19.495 45.98 20 48 C18.68 48 17.36 48 16 48 C16 46.68 16 45.36 16 44 C15.01 44 14.02 44 13 44 C13 43.01 13 42.02 13 41 C12.01 41 11.02 41 10 41 C9.67 42.32 9.34 43.64 9 45 C8.01 45 7.02 45 6 45 C6 45.99 6 46.98 6 48 C5.01 48 4.02 48 3 48 C3 46.68 3 45.36 3 44 C3.99 44 4.98 44 6 44 C6 43.01 6 42.02 6 41 C6.99 41 7.98 41 9 41 C9 40.01 9 39.02 9 38 C10.32 38 11.64 38 13 38 C13 36.68 13 35.36 13 34 C13.99 34 14.98 34 16 34 C16 33.01 16 32.02 16 31 C15.01 31 14.02 31 13 31 C13 30.01 13 29.02 13 28 C11.68 27.67 10.36 27.34 9 27 C9 28.32 9 29.64 9 31 C8.01 31 7.02 31 6 31 C6 31.99 6 32.98 6 34 C5.01 34 4.02 34 3 34 C3 34.99 3 35.98 3 37 C2.01 37 1.02 37 0 37 C0 36.01 0 35.02 0 34 C-1.32 34 -2.64 34 -4 34 C-4 34.99 -4 35.98 -4 37 C-3.01 37 -2.02 37 -1 37 C-1 38.32 -1 39.64 -1 41 C-1.99 41 -2.98 41 -4 41 C-4 41.99 -4 42.98 -4 44 C-5.32 44 -6.64 44 -8 44 C-8 43.01 -8 42.02 -8 41 C-8.66 41 -9.32 41 -10 41 C-10 41.99 -10 42.98 -10 44 C-11.32 44 -12.64 44 -14 44 C-14 43.01 -14 42.02 -14 41 C-14.99 41 -15.98 41 -17 41 C-17 41.99 -17 42.98 -17 44 C-18.32 44 -19.64 44 -21 44 C-21 43.01 -21 42.02 -21 41 C-21.66 41 -22.32 41 -23 41 C-23 42.32 -23 43.64 -23 45 C-22.34 45 -21.68 45 -21 45 C-21 45.99 -21 46.98 -21 48 C-21.99 48 -22.98 48 -24 48 C-24 48.99 -24 49.98 -24 51 C-24.99 51 -25.98 51 -27 51 C-28.6875 49 -28.6875 49 -30 47 C-28.35 46.34 -26.7 45.68 -25 45 C-24.94570041 43.25034642 -24.90707177 41.50020213 -24.875 39.75 C-24.84019531 38.28820312 -24.84019531 38.28820312 -24.8046875 36.796875 C-25.00462794 33.93372787 -25.37332298 32.34844762 -27 30 C-27.99 29.67 -28.98 29.34 -30 29 C-29.979375 27.948125 -29.95875 26.89625 -29.9375 25.8125 C-29.98896802 22.67295096 -30.26517187 20.03116604 -31 17 C-29.35 17 -27.7 17 -26 17 C-26 17.66 -26 18.32 -26 19 C-25.01 18.01 -24.02 17.02 -23 16 C-20.525 16.99 -20.525 16.99 -18 18 C-18 20.31 -18 22.62 -18 25 C-18.99 25.33 -19.98 25.66 -21 26 C-21.33 26.99 -21.66 27.98 -22 29 C-20.35328588 28.69217504 -18.70764424 28.37860766 -17.0625 28.0625 C-16.14597656 27.88847656 -15.22945312 27.71445313 -14.28515625 27.53515625 C-12.04710156 27.22285012 -12.04710156 27.22285012 -11 26 C-10.59057673 21.95614335 -10.59057673 21.95614335 -11 18 C-13.3549963 15.91783124 -13.3549963 15.91783124 -16 15 C-15.01 15 -14.02 15 -13 15 C-11.29467677 13.05990478 -11.29467677 13.05990478 -10 11 C-8.68 11.66 -7.36 12.32 -6 13 C-6 13.66 -6 14.32 -6 15 C-4.68 15.33 -3.36 15.66 -2 16 C-2.226875 14.845 -2.45375 13.69 -2.6875 12.5 C-3.33200418 7.6226711 -1.98149771 4.43855488 0 0 Z " fill="#E6E6E6" transform="translate(105,40)"/>
<path d="M0 0 C1.32 0.33 2.64 0.66 4 1 C4 1.99 4 2.98 4 4 C4.99 4 5.98 4 7 4 C7 4.99 7 5.98 7 7 C6.01 7 5.02 7 4 7 C4 8.32 4 9.64 4 11 C2.68 11 1.36 11 0 11 C0 11.99 0 12.98 0 14 C-0.99 14 -1.98 14 -3 14 C-3 14.99 -3 15.98 -3 17 C-3.99 17 -4.98 17 -6 17 C-6 18.32 -6 19.64 -6 21 C-5.01 21 -4.02 21 -3 21 C-3 20.01 -3 19.02 -3 18 C-2.01 17.67 -1.02 17.34 0 17 C0.495 15.515 0.495 15.515 1 14 C1.99 14 2.98 14 4 14 C4 14.99 4 15.98 4 17 C4.99 17 5.98 17 7 17 C7 18.32 7 19.64 7 21 C8.32 21 9.64 21 11 21 C10.505 19.02 10.505 19.02 10 17 C9.34 17 8.68 17 8 17 C8 16.01 8 15.02 8 14 C8.99 14 9.98 14 11 14 C11 14.99 11 15.98 11 17 C11.99 17 12.98 17 14 17 C14 22.61 14 28.22 14 34 C12.68 34 11.36 34 10 34 C10 33.01 10 32.02 10 31 C9.34 31 8.68 31 8 31 C8 30.01 8 29.02 8 28 C8.66 27.67 9.32 27.34 10 27 C10.495 25.515 10.495 25.515 11 24 C9.68 24 8.36 24 7 24 C7 24.99 7 25.98 7 27 C6.01 27 5.02 27 4 27 C4 28.32 4 29.64 4 31 C4.99 31 5.98 31 7 31 C7 31.99 7 32.98 7 34 C6.01 34 5.02 34 4 34 C4 34.99 4 35.98 4 37 C3.01 37 2.02 37 1 37 C1 36.01 1 35.02 1 34 C-0.32 34 -1.64 34 -3 34 C-3 33.01 -3 32.02 -3 31 C-2.01 31 -1.02 31 0 31 C0 30.01 0 29.02 0 28 C-0.99 27.67 -1.98 27.34 -3 27 C-3 26.01 -3 25.02 -3 24 C-3.99 24 -4.98 24 -6 24 C-6 24.99 -6 25.98 -6 27 C-7.32 27 -8.64 27 -10 27 C-10 28.32 -10 29.64 -10 31 C-10.99 31 -11.98 31 -13 31 C-13 30.01 -13 29.02 -13 28 C-13.99 28 -14.98 28 -16 28 C-16 26.68 -16 25.36 -16 24 C-17.32 24 -18.64 24 -20 24 C-20 24.99 -20 25.98 -20 27 C-20.99 27 -21.98 27 -23 27 C-23 26.01 -23 25.02 -23 24 C-23.99 24 -24.98 24 -26 24 C-26.33 25.32 -26.66 26.64 -27 28 C-27.99 28 -28.98 28 -30 28 C-30 28.99 -30 29.98 -30 31 C-29.01 31 -28.02 31 -27 31 C-27 31.99 -27 32.98 -27 34 C-27.99 34 -28.98 34 -30 34 C-30 34.99 -30 35.98 -30 37 C-30.99 37 -31.98 37 -33 37 C-33 36.01 -33 35.02 -33 34 C-33.99 34 -34.98 34 -36 34 C-36 34.99 -36 35.98 -36 37 C-37.32 37 -38.64 37 -40 37 C-40 36.01 -40 35.02 -40 34 C-39.01 34 -38.02 34 -37 34 C-37 33.01 -37 32.02 -37 31 C-37.99 31 -38.98 31 -40 31 C-40 29.68 -40 28.36 -40 27 C-39.01 27 -38.02 27 -37 27 C-37 26.01 -37 25.02 -37 24 C-37.99 24 -38.98 24 -40 24 C-40 23.01 -40 22.02 -40 21 C-38.68 21.33 -37.36 21.66 -36 22 C-36 22.66 -36 23.32 -36 24 C-35.01 24 -34.02 24 -33 24 C-33 23.01 -33 22.02 -33 21 C-32.01 21 -31.02 21 -30 21 C-30 20.01 -30 19.02 -30 18 C-30.66 18 -31.32 18 -32 18 C-32 16.68 -32 15.36 -32 14 C-31.34 14 -30.68 14 -30 14 C-30 14.99 -30 15.98 -30 17 C-28.68 17 -27.36 17 -26 17 C-26 16.01 -26 15.02 -26 14 C-25.01 14 -24.02 14 -23 14 C-23 14.99 -23 15.98 -23 17 C-21.68 17 -20.36 17 -19 17 C-19 16.01 -19 15.02 -19 14 C-18.34 14 -17.68 14 -17 14 C-17 14.99 -17 15.98 -17 17 C-15.68 17 -14.36 17 -13 17 C-13 16.01 -13 15.02 -13 14 C-12.01 14 -11.02 14 -10 14 C-10 12.68 -10 11.36 -10 10 C-10.99 10 -11.98 10 -13 10 C-13 9.01 -13 8.02 -13 7 C-11.68 7 -10.36 7 -9 7 C-9 7.99 -9 8.98 -9 10 C-8.01 10 -7.02 10 -6 10 C-6 9.01 -6 8.02 -6 7 C-5.01 7 -4.02 7 -3 7 C-3 6.01 -3 5.02 -3 4 C-2.01 4 -1.02 4 0 4 C0 2.68 0 1.36 0 0 Z " fill="#F1F1F1" transform="translate(114,67)"/>
<path d="M0 0 C0.93585937 0.16628906 1.87171875 0.33257812 2.8359375 0.50390625 C8.67266157 1.33961234 14.55919114 1.00775812 20.4375 0.87304688 C28.85581171 0.77053162 28.85581171 0.77053162 33 3 C33 4.65 33 6.3 33 8 C33.86625 8.061875 33.86625 8.061875 34.75 8.125 C38.16879475 9.45453129 39.22666645 11.89666629 41 15 C41 15.66 41 16.32 41 17 C35.22240116 17.12036664 29.72040011 16.8320582 24 16 C23.01 17.98 22.02 19.96 21 22 C23.475 22.99 23.475 22.99 26 24 C26.09765625 30.15234375 26.09765625 30.15234375 26 32 C24.37839771 33.62160229 22.34152005 33.58881947 20.125 34 C17.30262787 34.52662337 14.72981821 35.0900606 12 36 C9.93854893 36.068991 7.87498599 36.08467727 5.8125 36.0625 C4.18248047 36.04896484 4.18248047 36.04896484 2.51953125 36.03515625 C1.68808594 36.02355469 0.85664063 36.01195312 0 36 C-0.33 34.68 -0.66 33.36 -1 32 C-0.40832031 31.76925781 0.18335938 31.53851563 0.79296875 31.30078125 C5.85244474 29.21261253 9.34333146 27.21070923 13 23 C13.66 22.34 14.32 21.68 15 21 C15.67940467 18.57284794 15.67940467 18.57284794 16.125 15.875 C16.29257812 14.96492188 16.46015625 14.05484375 16.6328125 13.1171875 C16.75398438 12.41851562 16.87515625 11.71984375 17 11 C16.32195313 10.91363281 15.64390625 10.82726563 14.9453125 10.73828125 C8.70752787 9.79656584 3.78062968 8.17236198 -1.76171875 5.17578125 C-4.41938111 3.77969683 -7.11979814 2.83374264 -10 2 C-10 1.67 -10 1.34 -10 1 C-6.7 1 -3.4 1 0 1 C0 0.67 0 0.34 0 0 Z " fill="#B29082" transform="translate(26,40)"/>
<path d="M0 0 C-0.06171387 0.55461914 -0.12342773 1.10923828 -0.18701172 1.68066406 C-0.44901737 4.20161176 -0.6623973 6.72442649 -0.875 9.25 C-1.02195312 10.55904297 -1.02195312 10.55904297 -1.171875 11.89453125 C-1.3627741 14.39530943 -1.46882418 16.53382512 -1 19 C1.80782644 21.69468353 1.80782644 21.69468353 5 23 C4.67 24.32 4.34 25.64 4 27 C0.13304322 27 -2.5088452 25.58090029 -6 24 C-6 23.34 -6 22.68 -6 22 C-6.99 22.495 -6.99 22.495 -8 23 C-9.99960012 23.039992 -12.00047242 23.04346799 -14 23 C-14 24.32 -14 25.64 -14 27 C-19.64844014 27.97070622 -25.08871905 28.11969381 -30.8125 28.0625 C-31.67037109 28.05798828 -32.52824219 28.05347656 -33.41210938 28.04882812 C-34.9880515 28.04014866 -36.56398469 28.02940581 -38.13989258 28.01586914 C-39.4265591 28.0048922 -40.71328665 28 -42 28 C-43.87577353 27.8422773 -45.75069917 27.67435357 -47.625 27.5 C-48.62789062 27.4071875 -49.63078125 27.314375 -50.6640625 27.21875 C-51.43492188 27.1465625 -52.20578125 27.074375 -53 27 C-53 26.34 -53 25.68 -53 25 C-47.2139535 22.46398813 -41.71682359 20.58591782 -35.4921875 19.5 C-32.94929172 18.98982655 -30.58484015 18.25482708 -28.125 17.4375 C-22.49624851 15.66282994 -16.86893692 15.29243844 -11 15 C-11.495 13.515 -11.495 13.515 -12 12 C-10.453125 9.58984375 -10.453125 9.58984375 -8.25 6.9375 C-7.53328125 6.05964844 -6.8165625 5.18179687 -6.078125 4.27734375 C-2.17495712 0 -2.17495712 0 0 0 Z " fill="#3C3D4E" transform="translate(69,14)"/>
<path d="M0 0 C1.875 0.25 1.875 0.25 4 1 C4.4640625 1.99 4.4640625 1.99 4.9375 3 C5.288125 3.66 5.63875 4.32 6 5 C8.55519921 5.81171228 8.55519921 5.81171228 11 6 C11.33 4.68 11.66 3.36 12 2 C14.02558881 5.34939881 14.21738987 7.86962551 14.125 11.75 C14.10695312 12.73484375 14.08890625 13.7196875 14.0703125 14.734375 C14.04710937 15.48203125 14.02390625 16.2296875 14 17 C12.11834677 17.95793255 10.23434404 18.91148272 8.33984375 19.84375 C6.82166818 20.59396697 5.3129682 21.36379502 3.81640625 22.15625 C-4.63315552 26.37350008 -12.14042762 25.62505848 -21 23 C-21.33 21.68 -21.66 20.36 -22 19 C-21.44570313 18.79503906 -20.89140625 18.59007813 -20.3203125 18.37890625 C-19.59585938 18.10949219 -18.87140625 17.84007813 -18.125 17.5625 C-17.40570313 17.29566406 -16.68640625 17.02882813 -15.9453125 16.75390625 C-13.96351155 16.02083146 -13.96351155 16.02083146 -12 15 C-11.773125 14.278125 -11.54625 13.55625 -11.3125 12.8125 C-9.68360072 9.32200154 -7.54348043 7.68394819 -4.55859375 5.33203125 C-2.86950777 4.06350705 -2.86950777 4.06350705 -2 2 C-1.34 2 -0.68 2 0 2 C0 1.34 0 0.68 0 0 Z " fill="#1168B1" transform="translate(67,68)"/>
<path d="M0 0 C0.99 0 1.98 0 3 0 C3 0.99 3 1.98 3 3 C3.99 3 4.98 3 6 3 C6 4.32 6 5.64 6 7 C5.01 7 4.02 7 3 7 C3 7.99 3 8.98 3 10 C4.32 10 5.64 10 7 10 C7 10.99 7 11.98 7 13 C7.99 13 8.98 13 10 13 C10 14.32 10 15.64 10 17 C10.99 17 11.98 17 13 17 C13 17.99 13 18.98 13 20 C12.01 20 11.02 20 10 20 C10 21.32 10 22.64 10 24 C11.32 24.33 12.64 24.66 14 25 C14 26.32 14 27.64 14 29 C12.9378125 29.18175781 11.875625 29.36351563 10.78125 29.55078125 C2.04442664 30.9537724 2.04442664 30.9537724 -6.375 33.5625 C-10.16573996 35.06572447 -13.74108121 35.79850639 -17.734375 36.52734375 C-20.30172098 37.06294524 -22.5904893 37.97778334 -25 39 C-25.99 39 -26.98 39 -28 39 C-28.33 39.66 -28.66 40.32 -29 41 C-29.33 39.68 -29.66 38.36 -30 37 C-29.01 37 -28.02 37 -27 37 C-27 36.01 -27 35.02 -27 34 C-26.01 34 -25.02 34 -24 34 C-24 32.68 -24 31.36 -24 30 C-22.68 30 -21.36 30 -20 30 C-20 29.01 -20 28.02 -20 27 C-19.01 27 -18.02 27 -17 27 C-17 27.99 -17 28.98 -17 30 C-16.01 30 -15.02 30 -14 30 C-14 30.99 -14 31.98 -14 33 C-13.10796875 32.65066406 -12.2159375 32.30132812 -11.296875 31.94140625 C-10.12640625 31.48636719 -8.9559375 31.03132813 -7.75 30.5625 C-6.58984375 30.11003906 -5.4296875 29.65757813 -4.234375 29.19140625 C-1.81033692 28.29849367 0.48286475 27.54205635 3 27 C3 26.01 3 25.02 3 24 C3.99 24 4.98 24 6 24 C6 22.68 6 21.36 6 20 C5.01 20 4.02 20 3 20 C3 20.99 3 21.98 3 23 C2.01 23 1.02 23 0 23 C0 22.01 0 21.02 0 20 C-0.99 20 -1.98 20 -3 20 C-3 20.99 -3 21.98 -3 23 C-4.32 23 -5.64 23 -7 23 C-7 22.01 -7 21.02 -7 20 C-6.01 20 -5.02 20 -4 20 C-4 19.01 -4 18.02 -4 17 C-4.99 17 -5.98 17 -7 17 C-7 16.01 -7 15.02 -7 14 C-6.34 13.67 -5.68 13.34 -5 13 C-4.67 12.01 -4.34 11.02 -4 10 C-4.99 10 -5.98 10 -7 10 C-7 9.01 -7 8.02 -7 7 C-6.01 7 -5.02 7 -4 7 C-4 5.68 -4 4.36 -4 3 C-2.68 3 -1.36 3 0 3 C0 2.01 0 1.02 0 0 Z " fill="#E7E7E7" transform="translate(44,0)"/>
<path d="M0 0 C3.3 0 6.6 0 10 0 C10 0.99 10 1.98 10 3 C8.68 3 7.36 3 6 3 C6 4.32 6 5.64 6 7 C5.01 7 4.02 7 3 7 C3 7.99 3 8.98 3 10 C3.99 10 4.98 10 6 10 C5.67 11.32 5.34 12.64 5 14 C4.34 14 3.68 14 3 14 C3 14.99 3 15.98 3 17 C3.99 17 4.98 17 6 17 C6 17.99 6 18.98 6 20 C5.01 20 4.02 20 3 20 C3 20.99 3 21.98 3 23 C4.32 23 5.64 23 7 23 C7 22.01 7 21.02 7 20 C7.99 20 8.98 20 10 20 C10 20.99 10 21.98 10 23 C10.99 23 11.98 23 13 23 C13 22.01 13 21.02 13 20 C13.99 20 14.98 20 16 20 C16 21.32 16 22.64 16 24 C15.01 24 14.02 24 13 24 C13 24.99 13 25.98 13 27 C10.73192796 28.0067004 8.46092246 29.00551766 6.1875 30 C5.54490234 30.28617188 4.90230469 30.57234375 4.24023438 30.8671875 C1.32243531 32.13711041 -0.78265714 33 -4 33 C-4 32.01 -4 31.02 -4 30 C-4.99 30 -5.98 30 -7 30 C-7 29.01 -7 28.02 -7 27 C-7.99 27 -8.98 27 -10 27 C-10 27.99 -10 28.98 -10 30 C-11.32 30 -12.64 30 -14 30 C-14 29.01 -14 28.02 -14 27 C-13.01 27 -12.02 27 -11 27 C-11 26.01 -11 25.02 -11 24 C-11.99 24 -12.98 24 -14 24 C-14 22.68 -14 21.36 -14 20 C-12.68 20 -11.36 20 -10 20 C-10 20.99 -10 21.98 -10 23 C-9.01 23 -8.02 23 -7 23 C-7 22.01 -7 21.02 -7 20 C-6.01 20 -5.02 20 -4 20 C-4 19.01 -4 18.02 -4 17 C-4.99 17 -5.98 17 -7 17 C-7 16.01 -7 15.02 -7 14 C-6.01 14 -5.02 14 -4 14 C-4 12.68 -4 11.36 -4 10 C-2.68 10 -1.36 10 0 10 C0 9.01 0 8.02 0 7 C-0.99 7 -1.98 7 -3 7 C-2.67 5.68 -2.34 4.36 -2 3 C-1.34 3 -0.68 3 0 3 C0 2.01 0 1.02 0 0 Z " fill="#EFEFEF" transform="translate(34,0)"/>
<path d="M0 0 C3.3 0 6.6 0 10 0 C10 0.99 10 1.98 10 3 C9.01 3 8.02 3 7 3 C7 4.32 7 5.64 7 7 C7.99 7 8.98 7 10 7 C10 7.99 10 8.98 10 10 C9.01 10 8.02 10 7 10 C7.33 10.99 7.66 11.98 8 13 C8.66 13.33 9.32 13.66 10 14 C10 14.99 10 15.98 10 17 C9.01 17 8.02 17 7 17 C7 17.99 7 18.98 7 20 C7.99 20 8.98 20 10 20 C10 20.99 10 21.98 10 23 C11.32 23 12.64 23 14 23 C14 22.01 14 21.02 14 20 C14.99 20 15.98 20 17 20 C17 21.32 17 22.64 17 24 C16.01 24 15.02 24 14 24 C14 24.99 14 25.98 14 27 C13.01 27 12.02 27 11 27 C10.67 27.99 10.34 28.98 10 30 C9.01 30 8.02 30 7 30 C7 29.01 7 28.02 7 27 C6.01 27 5.02 27 4 27 C4 27.99 4 28.98 4 30 C2.68 30 1.36 30 0 30 C0 31.32 0 32.64 0 34 C-0.99 34 -1.98 34 -3 34 C-3 34.99 -3 35.98 -3 37 C-4.32 37 -5.64 37 -7 37 C-7 36.01 -7 35.02 -7 34 C-7.99 34 -8.98 34 -10 34 C-10 32.68 -10 31.36 -10 30 C-8.68 30 -7.36 30 -6 30 C-6 29.01 -6 28.02 -6 27 C-5.01 27 -4.02 27 -3 27 C-3 26.01 -3 25.02 -3 24 C-2.01 24 -1.02 24 0 24 C0 22.68 0 21.36 0 20 C0.99 20 1.98 20 3 20 C3 19.01 3 18.02 3 17 C2.34 17 1.68 17 1 17 C1 16.01 1 15.02 1 14 C1.66 13.67 2.32 13.34 3 13 C3.33 12.01 3.66 11.02 4 10 C3.01 10 2.02 10 1 10 C1 9.01 1 8.02 1 7 C1.66 7 2.32 7 3 7 C3 6.01 3 5.02 3 4 C2.01 4 1.02 4 0 4 C0 4.99 0 5.98 0 7 C-0.99 7 -1.98 7 -3 7 C-3 5.68 -3 4.36 -3 3 C-2.01 3 -1.02 3 0 3 C0 2.01 0 1.02 0 0 Z " fill="#F1F1F1" transform="translate(94,0)"/>
<path d="M0 0 C0.99 0 1.98 0 3 0 C3 0.99 3 1.98 3 3 C3.99 3 4.98 3 6 3 C6 4.32 6 5.64 6 7 C5.01 7 4.02 7 3 7 C3 7.99 3 8.98 3 10 C2.01 10 1.02 10 0 10 C0.98978029 12.53531958 1.60182036 13.76766335 3.98828125 15.16015625 C4.75527344 15.45792969 5.52226562 15.75570312 6.3125 16.0625 C13.15073529 18.88602941 13.15073529 18.88602941 16 21 C16 21.99 16 22.98 16 24 C15.01 24 14.02 24 13 24 C13 24.99 13 25.98 13 27 C12.01 27 11.02 27 10 27 C10 27.99 10 28.98 10 30 C8.68 30 7.36 30 6 30 C6 29.01 6 28.02 6 27 C6.99 27 7.98 27 9 27 C9 26.01 9 25.02 9 24 C8.01 24 7.02 24 6 24 C6 22.68 6 21.36 6 20 C5.01 20 4.02 20 3 20 C3 20.99 3 21.98 3 23 C1.68 23 0.36 23 -1 23 C-1 24.32 -1 25.64 -1 27 C-1.99 27 -2.98 27 -4 27 C-4 27.99 -4 28.98 -4 30 C-4.99 30 -5.98 30 -7 30 C-7 29.01 -7 28.02 -7 27 C-7.99 27 -8.98 27 -10 27 C-10 27.99 -10 28.98 -10 30 C-11.32 30 -12.64 30 -14 30 C-14 26.7 -14 23.4 -14 20 C-13.01 20 -12.02 20 -11 20 C-10.67 20.99 -10.34 21.98 -10 23 C-9.01 23.33 -8.02 23.66 -7 24 C-7 22.68 -7 21.36 -7 20 C-6.01 20 -5.02 20 -4 20 C-4 19.01 -4 18.02 -4 17 C-3.01 17 -2.02 17 -1 17 C-1 16.01 -1 15.02 -1 14 C-1.99 14 -2.98 14 -4 14 C-4 12.68 -4 11.36 -4 10 C-3.01 10 -2.02 10 -1 10 C-1 9.01 -1 8.02 -1 7 C-1.99 7 -2.98 7 -4 7 C-4 6.01 -4 5.02 -4 4 C-3.01 3.67 -2.02 3.34 -1 3 C-0.67 2.01 -0.34 1.02 0 0 Z " fill="#EFEEEE" transform="translate(14,27)"/>
<path d="M0 0 C-0.06171387 0.55461914 -0.12342773 1.10923828 -0.18701172 1.68066406 C-0.44901737 4.20161176 -0.6623973 6.72442649 -0.875 9.25 C-1.02195312 10.55904297 -1.02195312 10.55904297 -1.171875 11.89453125 C-1.3627741 14.39530943 -1.46882418 16.53382512 -1 19 C1.80782644 21.69468353 1.80782644 21.69468353 5 23 C4.67 24.32 4.34 25.64 4 27 C0.13304322 27 -2.5088452 25.58090029 -6 24 C-6 23.34 -6 22.68 -6 22 C-7.98 22 -9.96 22 -12 22 C-12 21.01 -12 20.02 -12 19 C-17.28 19 -22.56 19 -28 19 C-27.67 18.34 -27.34 17.68 -27 17 C-24.671875 16.3671875 -24.671875 16.3671875 -21.75 15.875 C-20.79609375 15.70742188 -19.8421875 15.53984375 -18.859375 15.3671875 C-16.19900755 15.02555561 -13.67794365 14.93158538 -11 15 C-11.33 14.01 -11.66 13.02 -12 12 C-10.453125 9.58984375 -10.453125 9.58984375 -8.25 6.9375 C-7.53328125 6.05964844 -6.8165625 5.18179687 -6.078125 4.27734375 C-2.17495712 0 -2.17495712 0 0 0 Z " fill="#2D3A5B" transform="translate(69,14)"/>
<path d="M0 0 C0.99 0.33 1.98 0.66 3 1 C3 1.99 3 2.98 3 4 C3.99 4 4.98 4 6 4 C6 4.99 6 5.98 6 7 C5.01 7 4.02 7 3 7 C3 7.99 3 8.98 3 10 C3.99 10 4.98 10 6 10 C6 11.32 6 12.64 6 14 C6.99 14 7.98 14 9 14 C9 13.01 9 12.02 9 11 C10.32 11 11.64 11 13 11 C13 11.99 13 12.98 13 14 C12.01 14 11.02 14 10 14 C9.67 15.32 9.34 16.64 9 18 C8.01 18 7.02 18 6 18 C6 18.99 6 19.98 6 21 C5.01 21 4.02 21 3 21 C3 19.68 3 18.36 3 17 C2.01 17 1.02 17 0 17 C-0.33 18.32 -0.66 19.64 -1 21 C-1.99 21 -2.98 21 -4 21 C-4 21.99 -4 22.98 -4 24 C-4.99 24 -5.98 24 -7 24 C-7 23.01 -7 22.02 -7 21 C-7.66 21 -8.32 21 -9 21 C-8.67 22.98 -8.34 24.96 -8 27 C-8.99 26.67 -9.98 26.34 -11 26 C-10.896875 24.741875 -10.79375 23.48375 -10.6875 22.1875 C-10.60418432 20.00858677 -10.60418432 20.00858677 -11 18 C-13.3549963 15.91783124 -13.3549963 15.91783124 -16 15 C-15.01 15 -14.02 15 -13 15 C-11.29467677 13.05990478 -11.29467677 13.05990478 -10 11 C-8.68 11.66 -7.36 12.32 -6 13 C-6 13.66 -6 14.32 -6 15 C-4.68 15.33 -3.36 15.66 -2 16 C-2.226875 14.845 -2.45375 13.69 -2.6875 12.5 C-3.33200418 7.6226711 -1.98149771 4.43855488 0 0 Z " fill="#E7E6E6" transform="translate(105,40)"/>
<path d="M0 0 C5.61 0 11.22 0 17 0 C17 0.99 17 1.98 17 3 C17.99 3 18.98 3 20 3 C20 4.32 20 5.64 20 7 C19.01 7 18.02 7 17 7 C17 7.99 17 8.98 17 10 C16.01 10 15.02 10 14 10 C13.67 11.32 13.34 12.64 13 14 C12.34 14 11.68 14 11 14 C11 14.99 11 15.98 11 17 C11.66 17 12.32 17 13 17 C13 17.99 13 18.98 13 20 C12.34 20 11.68 20 11 20 C11.33 21.65 11.66 23.3 12 25 C10.35 24.67 8.7 24.34 7 24 C7 22.68 7 21.36 7 20 C7.99 20 8.98 20 10 20 C10 19.01 10 18.02 10 17 C9.01 17 8.02 17 7 17 C7 15.68 7 14.36 7 13 C6.01 13 5.02 13 4 13 C4 12.01 4 11.02 4 10 C2.68 10 1.36 10 0 10 C0 9.01 0 8.02 0 7 C0.99 7 1.98 7 3 7 C3 5.68 3 4.36 3 3 C2.01 3 1.02 3 0 3 C0 2.01 0 1.02 0 0 Z " fill="#EBEBEB" transform="translate(47,0)"/>
<path d="M0 0 C0.99 0.33 1.98 0.66 3 1 C3 1.66 3 2.32 3 3 C3.8971875 2.690625 3.8971875 2.690625 4.8125 2.375 C7 2 7 2 10 4 C10.47114738 6.7427508 10.17805784 9.19558897 10 12 C8.37839771 13.62160229 6.34152005 13.58881947 4.125 14 C1.30262787 14.52662337 -1.27018179 15.0900606 -4 16 C-6.06145107 16.068991 -8.12501401 16.08467727 -10.1875 16.0625 C-11.81751953 16.04896484 -11.81751953 16.04896484 -13.48046875 16.03515625 C-14.31191406 16.02355469 -15.14335937 16.01195313 -16 16 C-16.33 14.68 -16.66 13.36 -17 12 C-16.40832031 11.76925781 -15.81664063 11.53851563 -15.20703125 11.30078125 C-10.14017403 9.20956612 -6.66685388 7.2060971 -3 3 C-2 2 -1 1 0 0 Z " fill="#317CB1" transform="translate(42,60)"/>
<path d="M0 0 C0.99 0 1.98 0 3 0 C3 3.3 3 6.6 3 10 C2.01 10 1.02 10 0 10 C0 9.01 0 8.02 0 7 C-0.99 7 -1.98 7 -3 7 C-3 7.99 -3 8.98 -3 10 C-2.34 10 -1.68 10 -1 10 C-1 11.32 -1 12.64 -1 14 C-1.99 14 -2.98 14 -4 14 C-4 14.99 -4 15.98 -4 17 C-3.01 17 -2.02 17 -1 17 C-1 18.32 -1 19.64 -1 21 C-1.66 21 -2.32 21 -3 21 C-3 21.99 -3 22.98 -3 24 C-2.34 24 -1.68 24 -1 24 C-1 24.99 -1 25.98 -1 27 C-1.99 27 -2.98 27 -4 27 C-4 26.01 -4 25.02 -4 24 C-4.99 24 -5.98 24 -7 24 C-7 23.01 -7 22.02 -7 21 C-7.99 20.67 -8.98 20.34 -10 20 C-10 19.01 -10 18.02 -10 17 C-11.32 17 -12.64 17 -14 17 C-14 16.01 -14 15.02 -14 14 C-13.01 14 -12.02 14 -11 14 C-11 13.01 -11 12.02 -11 11 C-11.99 11 -12.98 11 -14 11 C-14 11.66 -14 12.32 -14 13 C-14.66 12.67 -15.32 12.34 -16 12 C-13.62176166 7.15544041 -13.62176166 7.15544041 -12 5 C-9.25 4.0625 -9.25 4.0625 -7 4 C-7 4.99 -7 5.98 -7 7 C-6.01 7 -5.02 7 -4 7 C-4 6.01 -4 5.02 -4 4 C-2.68 4 -1.36 4 0 4 C0 2.68 0 1.36 0 0 Z " fill="#E5E5E6" transform="translate(125,20)"/>
<path d="M0 0 C1.32 0 2.64 0 4 0 C4 0.99 4 1.98 4 3 C3.01 3 2.02 3 1 3 C1.33 3.99 1.66 4.98 2 6 C2.66 6.33 3.32 6.66 4 7 C4 7.99 4 8.98 4 10 C2.68 10 1.36 10 0 10 C0 10.99 0 11.98 0 13 C-0.99 13 -1.98 13 -3 13 C-3 13.99 -3 14.98 -3 16 C-1.68 16 -0.36 16 1 16 C1 15.01 1 14.02 1 13 C1.99 13 2.98 13 4 13 C4 13.99 4 14.98 4 16 C4.99 16 5.98 16 7 16 C7 17.32 7 18.64 7 20 C1.39 20 -4.22 20 -10 20 C-10 18.68 -10 17.36 -10 16 C-10.99 16 -11.98 16 -13 16 C-13 15.01 -13 14.02 -13 13 C-11.68 13 -10.36 13 -9 13 C-9 12.01 -9 11.02 -9 10 C-8.34 10 -7.68 10 -7 10 C-7 9.01 -7 8.02 -7 7 C-7.66 7 -8.32 7 -9 7 C-9 5.68 -9 4.36 -9 3 C-8.01 3 -7.02 3 -6 3 C-6 3.99 -6 4.98 -6 6 C-5.01 6 -4.02 6 -3 6 C-3 5.01 -3 4.02 -3 3 C-2.01 3 -1.02 3 0 3 C0 2.01 0 1.02 0 0 Z " fill="#F0F0F0" transform="translate(40,88)"/>
<path d="M0 0 C1.32 0.33 2.64 0.66 4 1 C3.47212891 1.69222656 3.47212891 1.69222656 2.93359375 2.3984375 C-2.02559475 8.95026356 -6.80433197 15.62881453 -11.3125 22.5 C-13 25 -13 25 -15 27 C-17.125 26.625 -17.125 26.625 -19 26 C-19.33 24.02 -19.66 22.04 -20 20 C-19.01 20 -18.02 20 -17 20 C-17 19.01 -17 18.02 -17 17 C-17.99 17 -18.98 17 -20 17 C-20 16.01 -20 15.02 -20 14 C-19.01 14 -18.02 14 -17 14 C-17 12.68 -17 11.36 -17 10 C-15.68 10 -14.36 10 -13 10 C-13 9.01 -13 8.02 -13 7 C-12.01 7 -11.02 7 -10 7 C-10 7.99 -10 8.98 -10 10 C-9.01 9.67 -8.02 9.34 -7 9 C-6.67 8.34 -6.34 7.68 -6 7 C-5.01 7 -4.02 7 -3 7 C-3 6.01 -3 5.02 -3 4 C-2.01 4 -1.02 4 0 4 C0 2.68 0 1.36 0 0 Z " fill="#E6E6E6" transform="translate(111,20)"/>
<path d="M0 0 C0.99 0 1.98 0 3 0 C3 0.99 3 1.98 3 3 C3.99 3 4.98 3 6 3 C6 2.01 6 1.02 6 0 C7.32 0 8.64 0 10 0 C10 0.99 10 1.98 10 3 C10.99 3 11.98 3 13 3 C13 4.32 13 5.64 13 7 C13.99 7 14.98 7 16 7 C16 7.99 16 8.98 16 10 C16.99 10 17.98 10 19 10 C19 9.01 19 8.02 19 7 C18.34 7 17.68 7 17 7 C17 6.01 17 5.02 17 4 C17.66 3.67 18.32 3.34 19 3 C19.33 2.01 19.66 1.02 20 0 C20.99 0 21.98 0 23 0 C23 3.3 23 6.6 23 10 C22.01 10 21.02 10 20 10 C20 11.32 20 12.64 20 14 C18.68 14 17.36 14 16 14 C16 14.99 16 15.98 16 17 C15.01 17 14.02 17 13 17 C13 16.01 13 15.02 13 14 C12.01 14 11.02 14 10 14 C9.67 13.01 9.34 12.02 9 11 C8.01 10.67 7.02 10.34 6 10 C6 9.01 6 8.02 6 7 C5.01 7 4.02 7 3 7 C3 6.01 3 5.02 3 4 C2.01 3.67 1.02 3.34 0 3 C0 2.01 0 1.02 0 0 Z " fill="#F0F0F0" transform="translate(105,10)"/>
<path d="M0 0 C0.99 0 1.98 0 3 0 C3 1.32 3 2.64 3 4 C3.99 4 4.98 4 6 4 C6 4.99 6 5.98 6 7 C5.01 7 4.02 7 3 7 C3 7.99 3 8.98 3 10 C2.01 10 1.02 10 0 10 C0 9.01 0 8.02 0 7 C-0.99 7 -1.98 7 -3 7 C-3.33 8.32 -3.66 9.64 -4 11 C-4.99 11 -5.98 11 -7 11 C-7 11.99 -7 12.98 -7 14 C-6.01 14 -5.02 14 -4 14 C-4 14.99 -4 15.98 -4 17 C-4.99 17 -5.98 17 -7 17 C-7 17.99 -7 18.98 -7 20 C-7.99 20 -8.98 20 -10 20 C-10 19.01 -10 18.02 -10 17 C-10.99 17 -11.98 17 -13 17 C-13.33 18.32 -13.66 19.64 -14 21 C-14.99 21 -15.98 21 -17 21 C-17 17.37 -17 13.74 -17 10 C-15.68 10 -14.36 10 -13 10 C-13 9.01 -13 8.02 -13 7 C-12.01 7 -11.02 7 -10 7 C-10 7.99 -10 8.98 -10 10 C-9.01 10 -8.02 10 -7 10 C-7 9.01 -7 8.02 -7 7 C-6.01 7 -5.02 7 -4 7 C-4 5.68 -4 4.36 -4 3 C-2.68 3 -1.36 3 0 3 C0 2.01 0 1.02 0 0 Z " fill="#E4E4E4" transform="translate(17,47)"/>
<path d="M0 0 C3.3 0 6.6 0 10 0 C10 0.99 10 1.98 10 3 C10.99 3 11.98 3 13 3 C13 4.32 13 5.64 13 7 C12.01 7 11.02 7 10 7 C10 7.99 10 8.98 10 10 C9.01 10 8.02 10 7 10 C7 10.99 7 11.98 7 13 C5.68 13 4.36 13 3 13 C3 14.32 3 15.64 3 17 C4.32 17 5.64 17 7 17 C7 17.99 7 18.98 7 20 C6.01 20 5.02 20 4 20 C4 20.99 4 21.98 4 23 C2.68 23 1.36 23 0 23 C0 17.72 0 12.44 0 7 C0.99 7 1.98 7 3 7 C3 5.68 3 4.36 3 3 C2.01 3 1.02 3 0 3 C0 2.01 0 1.02 0 0 Z " fill="#EEEEEE" transform="translate(74,0)"/>
<path d="M0 0 C5.28 0 10.56 0 16 0 C15.67 0.99 15.34 1.98 15 3 C14.34 3 13.68 3 13 3 C13 3.99 13 4.98 13 6 C13.99 6 14.98 6 16 6 C16 6.99 16 7.98 16 9 C15.01 9 14.02 9 13 9 C13 9.99 13 10.98 13 12 C12.01 12 11.02 12 10 12 C10 11.01 10 10.02 10 9 C8.68 9 7.36 9 6 9 C6 9.99 6 10.98 6 12 C5.01 12 4.02 12 3 12 C3 11.01 3 10.02 3 9 C1.68 9 0.36 9 -1 9 C-1 8.01 -1 7.02 -1 6 C-1.99 6 -2.98 6 -4 6 C-4 5.01 -4 4.02 -4 3 C-3.01 2.67 -2.02 2.34 -1 2 C-0.67 1.34 -0.34 0.68 0 0 Z " fill="#F0F0F1" transform="translate(51,92)"/>
<path d="M0 0 C1.32 0 2.64 0 4 0 C4 1.32 4 2.64 4 4 C4.99 4 5.98 4 7 4 C7 4.99 7 5.98 7 7 C7.99 7 8.98 7 10 7 C10 7.99 10 8.98 10 10 C9.01 10 8.02 10 7 10 C7 10.99 7 11.98 7 13 C6.01 13 5.02 13 4 13 C4 12.01 4 11.02 4 10 C3.01 10 2.02 10 1 10 C1.33 10.99 1.66 11.98 2 13 C2.66 13.33 3.32 13.66 4 14 C4 14.99 4 15.98 4 17 C4.99 17 5.98 17 7 17 C7 17.99 7 18.98 7 20 C6.01 20 5.02 20 4 20 C4 20.99 4 21.98 4 23 C2.68 23 1.36 23 0 23 C0 22.01 0 21.02 0 20 C-0.99 20 -1.98 20 -3 20 C-3 19.01 -3 18.02 -3 17 C-2.01 17 -1.02 17 0 17 C0 16.01 0 15.02 0 14 C-0.99 13.67 -1.98 13.34 -3 13 C-3 12.01 -3 11.02 -3 10 C-2.01 10 -1.02 10 0 10 C0 9.01 0 8.02 0 7 C-0.99 7 -1.98 7 -3 7 C-3 5.68 -3 4.36 -3 3 C-2.01 3 -1.02 3 0 3 C0 2.01 0 1.02 0 0 Z " fill="#E4E4E4" transform="translate(104,0)"/>
<path d="M0 0 C2.96909598 3.27301919 3.34354794 5.38065762 3.1875 9.75 C3.14689453 11.22726563 3.14689453 11.22726563 3.10546875 12.734375 C3.07066406 13.48203125 3.03585938 14.2296875 3 15 C1.11834677 15.95793255 -0.76565596 16.91148272 -2.66015625 17.84375 C-4.17833182 18.59396697 -5.6870318 19.36379502 -7.18359375 20.15625 C-14.76779987 23.94159352 -21.78734769 23.72897943 -30 22 C-30 21.34 -30 20.68 -30 20 C-29.0821875 19.96261719 -28.164375 19.92523438 -27.21875 19.88671875 C-15.85852626 19.27813534 -8.70512939 16.68379105 1 11 C1 10.01 1 9.02 1 8 C0.54109375 8.433125 0.0821875 8.86625 -0.390625 9.3125 C-1.00421875 9.869375 -1.6178125 10.42625 -2.25 11 C-2.85328125 11.556875 -3.4565625 12.11375 -4.078125 12.6875 C-6 14 -6 14 -10 14 C-10 13.01 -10 12.02 -10 11 C-8.63875 11.061875 -8.63875 11.061875 -7.25 11.125 C-3.86660345 10.35624663 -3.86660345 10.35624663 -2.7109375 7.70703125 C-1.71197501 5.15931756 -0.80667822 2.61458648 0 0 Z " fill="#708DB1" transform="translate(78,70)"/>
<path d="M0 0 C0.66 0.33 1.32 0.66 2 1 C2 1.66 2 2.32 2 3 C0.40671875 3.27263672 0.40671875 3.27263672 -1.21875 3.55078125 C-9.95557336 4.9537724 -9.95557336 4.9537724 -18.375 7.5625 C-22.16573996 9.06572447 -25.74108121 9.79850639 -29.734375 10.52734375 C-32.30172098 11.06294524 -34.5904893 11.97778334 -37 13 C-37.99 13 -38.98 13 -40 13 C-40.33 13.66 -40.66 14.32 -41 15 C-41.33 13.68 -41.66 12.36 -42 11 C-41.01 11 -40.02 11 -39 11 C-39 10.01 -39 9.02 -39 8 C-38.01 8 -37.02 8 -36 8 C-36 6.68 -36 5.36 -36 4 C-34.68 4 -33.36 4 -32 4 C-32 3.01 -32 2.02 -32 1 C-31.01 1 -30.02 1 -29 1 C-29 1.99 -29 2.98 -29 4 C-28.01 4 -27.02 4 -26 4 C-26 4.99 -26 5.98 -26 7 C-25.03513672 6.60167969 -25.03513672 6.60167969 -24.05078125 6.1953125 C-17.61468046 3.67963259 -11.50521253 2.26641824 -4.65234375 1.39453125 C-2.03111607 1.14503728 -2.03111607 1.14503728 0 0 Z " fill="#E3E2E3" transform="translate(56,26)"/>
<path d="M0 0 C4.62 0 9.24 0 14 0 C13.67 1.32 13.34 2.64 13 4 C12.01 4 11.02 4 10 4 C10 4.99 10 5.98 10 7 C10.99 7 11.98 7 13 7 C13 7.99 13 8.98 13 10 C12.01 10 11.02 10 10 10 C10 10.99 10 11.98 10 13 C9.01 13 8.02 13 7 13 C7 12.01 7 11.02 7 10 C6.01 10 5.02 10 4 10 C3.67 11.32 3.34 12.64 3 14 C2.01 14 1.02 14 0 14 C0 9.38 0 4.76 0 0 Z " fill="#E1E1E1" transform="translate(0,0)"/>
<path d="M0 0 C1.17949219 0.10183594 2.35898437 0.20367187 3.57421875 0.30859375 C4.47785156 0.39238281 5.38148437 0.47617187 6.3125 0.5625 C6.3125 1.8825 6.3125 3.2025 6.3125 4.5625 C5.3225 4.5625 4.3325 4.5625 3.3125 4.5625 C3.3125 5.5525 3.3125 6.5425 3.3125 7.5625 C4.3025 7.5625 5.2925 7.5625 6.3125 7.5625 C6.3125 8.5525 6.3125 9.5425 6.3125 10.5625 C5.3225 10.5625 4.3325 10.5625 3.3125 10.5625 C3.3125 11.8825 3.3125 13.2025 3.3125 14.5625 C2.3225 14.5625 1.3325 14.5625 0.3125 14.5625 C0.3125 15.5525 0.3125 16.5425 0.3125 17.5625 C-1.0075 17.5625 -2.3275 17.5625 -3.6875 17.5625 C-3.6875 15.5825 -3.6875 13.6025 -3.6875 11.5625 C-2.6975 11.2325 -1.7075 10.9025 -0.6875 10.5625 C-0.3575 8.5825 -0.0275 6.6025 0.3125 4.5625 C-1.0075 4.5625 -2.3275 4.5625 -3.6875 4.5625 C-3.6875 5.5525 -3.6875 6.5425 -3.6875 7.5625 C-4.6775 7.5625 -5.6675 7.5625 -6.6875 7.5625 C-6.6875 6.5725 -6.6875 5.5825 -6.6875 4.5625 C-7.6775 4.5625 -8.6675 4.5625 -9.6875 4.5625 C-9.6875 3.2425 -9.6875 1.9225 -9.6875 0.5625 C-6.14075997 -0.61974668 -3.71227005 -0.33079634 0 0 Z " fill="#F0F0F0" transform="translate(60.6875,56.4375)"/>
<path d="M0 0 C0 0.66 0 1.32 0 2 C0.99 2 1.98 2 3 2 C3 2.66 3 3.32 3 4 C7.34184202 3.81535634 7.34184202 3.81535634 11 2 C12.99958364 1.95919217 15.00045254 1.95745644 17 2 C17 2.66 17 3.32 17 4 C17.66 4.33 18.32 4.66 19 5 C16.01820965 5.99393012 14.07446072 6.11588707 10.96484375 6.09765625 C9.99095703 6.09443359 9.01707031 6.09121094 8.01367188 6.08789062 C6.99853516 6.07951172 5.98339844 6.07113281 4.9375 6.0625 C3.91849609 6.05798828 2.89949219 6.05347656 1.84960938 6.04882812 C-0.76697507 6.03669022 -3.38345826 6.01888256 -6 6 C-6.66 6 -7.32 6 -8 6 C-9.87577353 5.8422773 -11.75069917 5.67435357 -13.625 5.5 C-14.62789062 5.4071875 -15.63078125 5.314375 -16.6640625 5.21875 C-17.43492188 5.1465625 -18.20578125 5.074375 -19 5 C-19 4.34 -19 3.68 -19 3 C-12.12431628 -0.34453926 -7.55052001 -1.46139097 0 0 Z " fill="#54494F" transform="translate(35,36)"/>
<path d="M0 0 C4.52853301 1.509511 5.53012115 4.86015307 7.6875 8.9375 C8.09669678 9.70570068 8.50589355 10.47390137 8.92749023 11.26538086 C11.88871805 17.11825473 12.94263572 21.40154996 12 28 C13.65 28 15.3 28 17 28 C17 29.32 17 30.64 17 32 C14.13736188 31.69052561 12.48090331 31.50276255 10.453125 29.3828125 C8.03144805 25.4117831 7.2774896 20.98681978 6.16015625 16.5078125 C4.92395094 12.77006042 3.42967703 10.08896321 1 7 C0.01 6.67 -0.98 6.34 -2 6 C-1.125 1.125 -1.125 1.125 0 0 Z " fill="#1F253C" transform="translate(61,42)"/>
<path d="M0 0 C0.99 0 1.98 0 3 0 C3.33 0.66 3.66 1.32 4 2 C4.99 2.33 5.98 2.66 7 3 C7 2.01 7 1.02 7 0 C7.99 0 8.98 0 10 0 C10 1.32 10 2.64 10 4 C9.01 4 8.02 4 7 4 C7 4.99 7 5.98 7 7 C6.01 7 5.02 7 4 7 C3.67 8.32 3.34 9.64 3 11 C2.01 11 1.02 11 0 11 C0 11.99 0 12.98 0 14 C0.99 14 1.98 14 3 14 C3 14.99 3 15.98 3 17 C2.01 17 1.02 17 0 17 C0 17.99 0 18.98 0 20 C-0.99 20 -1.98 20 -3 20 C-3 19.01 -3 18.02 -3 17 C-3.99 17 -4.98 17 -6 17 C-6.33 18.32 -6.66 19.64 -7 21 C-7.99 21 -8.98 21 -10 21 C-10 19.68 -10 18.36 -10 17 C-9.01 17 -8.02 17 -7 17 C-7 16.01 -7 15.02 -7 14 C-5.68 14 -4.36 14 -3 14 C-3 12.68 -3 11.36 -3 10 C-2.01 10 -1.02 10 0 10 C0 9.01 0 8.02 0 7 C0.99 7 1.98 7 3 7 C3 6.01 3 5.02 3 4 C2.01 4 1.02 4 0 4 C0 2.68 0 1.36 0 0 Z " fill="#E1E1E1" transform="translate(10,74)"/>
<path d="M0 0 C0.33 0.99 0.66 1.98 1 3 C1.99 3 2.98 3 4 3 C4 3.99 4 4.98 4 6 C3.01 6 2.02 6 1 6 C1 7.32 1 8.64 1 10 C1.99 10 2.98 10 4 10 C4 10.99 4 11.98 4 13 C3.01 13 2.02 13 1 13 C1 13.99 1 14.98 1 16 C0.01 16 -0.98 16 -2 16 C-2 15.01 -2 14.02 -2 13 C-3.32 13 -4.64 13 -6 13 C-6 12.01 -6 11.02 -6 10 C-6.99 10 -7.98 10 -9 10 C-9 9.01 -9 8.02 -9 7 C-8.34 6.67 -7.68 6.34 -7 6 C-7 5.01 -7 4.02 -7 3 C-4.69 2.01 -2.38 1.02 0 0 Z " fill="#E4E4E4" transform="translate(73,88)"/>
<path d="M0 0 C0.99 0 1.98 0 3 0 C3 0.99 3 1.98 3 3 C3.99 3 4.98 3 6 3 C6 4.32 6 5.64 6 7 C5.01 7 4.02 7 3 7 C3 7.99 3 8.98 3 10 C2.01 10 1.02 10 0 10 C-0.33 11.32 -0.66 12.64 -1 14 C-1.66 14 -2.32 14 -3 14 C-3 14.99 -3 15.98 -3 17 C-2.34 17 -1.68 17 -1 17 C-1 17.99 -1 18.98 -1 20 C-1.66 20 -2.32 20 -3 20 C-2.67 21.65 -2.34 23.3 -2 25 C-3.65 24.67 -5.3 24.34 -7 24 C-7 22.68 -7 21.36 -7 20 C-6.01 20 -5.02 20 -4 20 C-4 19.01 -4 18.02 -4 17 C-4.99 17 -5.98 17 -7 17 C-7 15.68 -7 14.36 -7 13 C-6.01 13 -5.02 13 -4 13 C-4 12.01 -4 11.02 -4 10 C-3.01 10 -2.02 10 -1 10 C-1 9.01 -1 8.02 -1 7 C-1.99 7 -2.98 7 -4 7 C-4 5.68 -4 4.36 -4 3 C-2.68 3 -1.36 3 0 3 C0 2.01 0 1.02 0 0 Z " fill="#F4F4F4" transform="translate(61,0)"/>
<path d="M0 0 C0.99 0 1.98 0 3 0 C3 0.99 3 1.98 3 3 C3.99 3 4.98 3 6 3 C6 4.32 6 5.64 6 7 C5.01 7 4.02 7 3 7 C3 7.99 3 8.98 3 10 C2.01 10 1.02 10 0 10 C0 11.32 0 12.64 0 14 C0.99 14 1.98 14 3 14 C3.33 15.32 3.66 16.64 4 18 C3.01 18 2.02 18 1 18 C1.66 19.65 2.32 21.3 3 23 C2.01 23 1.02 23 0 23 C-0.33 22.01 -0.66 21.02 -1 20 C-1.99 20 -2.98 20 -4 20 C-4 19.01 -4 18.02 -4 17 C-3.01 17 -2.02 17 -1 17 C-1.33 16.01 -1.66 15.02 -2 14 C-2.66 13.67 -3.32 13.34 -4 13 C-4 12.01 -4 11.02 -4 10 C-3.01 10 -2.02 10 -1 10 C-1 9.01 -1 8.02 -1 7 C-1.99 7 -2.98 7 -4 7 C-4 5.68 -4 4.36 -4 3 C-2.68 3 -1.36 3 0 3 C0 2.01 0 1.02 0 0 Z " fill="#E2E3E3" transform="translate(24,54)"/>
<path d="M0 0 C3.3 0.66 6.6 1.32 10 2 C9.01 2.33 8.02 2.66 7 3 C7 3.99 7 4.98 7 6 C6.01 6 5.02 6 4 6 C4 7.32 4 8.64 4 10 C3.01 10 2.02 10 1 10 C1 10.99 1 11.98 1 13 C1.99 13 2.98 13 4 13 C4 13.99 4 14.98 4 16 C3.01 16 2.02 16 1 16 C1 16.99 1 17.98 1 19 C-0.32 19 -1.64 19 -3 19 C-3 17.02 -3 15.04 -3 13 C-2.01 13 -1.02 13 0 13 C0 11.68 0 10.36 0 9 C-0.99 9 -1.98 9 -3 9 C-3 7.02 -3 5.04 -3 3 C-2.01 3 -1.02 3 0 3 C0 2.01 0 1.02 0 0 Z " fill="#EAEAEA" transform="translate(30,48)"/>
<path d="M0 0 C0.66 0 1.32 0 2 0 C2 0.99 2 1.98 2 3 C2.99 3 3.98 3 5 3 C5 4.32 5 5.64 5 7 C5.99 7 6.98 7 8 7 C8 7.99 8 8.98 8 10 C7.01 10 6.02 10 5 10 C5 10.99 5 11.98 5 13 C4.01 13 3.02 13 2 13 C2 13.99 2 14.98 2 16 C1.01 16 0.02 16 -1 16 C-1 15.01 -1 14.02 -1 13 C-2.32 13 -3.64 13 -5 13 C-5 12.01 -5 11.02 -5 10 C-4.01 10 -3.02 10 -2 10 C-2.33 8.68 -2.66 7.36 -3 6 C-1.68 6 -0.36 6 1 6 C0.67 4.02 0.34 2.04 0 0 Z " fill="#F2F2F2" transform="translate(96,61)"/>
<path d="M0 0 C0.99 0 1.98 0 3 0 C3.33 0.99 3.66 1.98 4 3 C4.66 3.33 5.32 3.66 6 4 C6 4.99 6 5.98 6 7 C5.01 7 4.02 7 3 7 C3 7.99 3 8.98 3 10 C2.01 10 1.02 10 0 10 C0 10.99 0 11.98 0 13 C-1.32 13 -2.64 13 -4 13 C-4 12.01 -4 11.02 -4 10 C-4.99 10 -5.98 10 -7 10 C-7 9.01 -7 8.02 -7 7 C-6.01 7 -5.02 7 -4 7 C-4 5.68 -4 4.36 -4 3 C-2.68 3 -1.36 3 0 3 C0 2.01 0 1.02 0 0 Z " fill="#E4E4E4" transform="translate(108,91)"/>
<path d="M0 0 C1.9609375 0.015625 1.9609375 0.015625 4.375 0.25 C5.16648437 0.31703125 5.95796875 0.3840625 6.7734375 0.453125 C9.40770669 1.10013848 10.39574539 1.83194984 12 4 C12.1875 7.1875 12.1875 7.1875 12 10 C11.01 10.33 10.02 10.66 9 11 C9 10.34 9 9.68 9 9 C7.02 9 5.04 9 3 9 C1.68 6.36 0.36 3.72 -1 1 C-0.67 0.67 -0.34 0.34 0 0 Z " fill="#897F8B" transform="translate(70,48)"/>
<path d="M0 0 C0.48241206 7.35678392 0.48241206 7.35678392 -1.5 10 C-5.12079138 11.44831655 -8.11283436 11.19435828 -12 11 C-11.67 9.68 -11.34 8.36 -11 7 C-10.01 7 -9.02 7 -8 7 C-8.33 6.01 -8.66 5.02 -9 4 C-8.67 3.34 -8.34 2.68 -8 2 C-1.77777778 0 -1.77777778 0 0 0 Z " fill="#24679B" transform="translate(95,58)"/>
<path d="M0 0 C-0.33 4.95 -0.66 9.9 -1 15 C-3.31 14.67 -5.62 14.34 -8 14 C-8.875 11.4375 -8.875 11.4375 -9 8 C-7.16563069 5.060229 -3.90519564 0 0 0 Z " fill="#424757" transform="translate(69,14)"/>
<path d="M0 0 C0.99 0 1.98 0 3 0 C3 0.99 3 1.98 3 3 C4.32 3 5.64 3 7 3 C7 2.01 7 1.02 7 0 C7.66 0 8.32 0 9 0 C9 0.99 9 1.98 9 3 C10.32 3 11.64 3 13 3 C13 4.32 13 5.64 13 7 C12.01 7 11.02 7 10 7 C9.67 6.34 9.34 5.68 9 5 C8.01 4.67 7.02 4.34 6 4 C6 4.99 6 5.98 6 7 C5.01 7 4.02 7 3 7 C3 7.99 3 8.98 3 10 C2.01 10 1.02 10 0 10 C0 9.01 0 8.02 0 7 C-1.32 7 -2.64 7 -4 7 C-4 6.01 -4 5.02 -4 4 C-3.01 3.67 -2.02 3.34 -1 3 C-0.67 2.01 -0.34 1.02 0 0 Z " fill="#F4F4F4" transform="translate(115,54)"/>
<path d="M0 0 C0.99 0.33 1.98 0.66 3 1 C3 1.66 3 2.32 3 3 C3.598125 2.79375 4.19625 2.5875 4.8125 2.375 C7 2 7 2 10 4 C10.1875 6.625 10.1875 6.625 10 9 C5.56923077 11.09230769 5.56923077 11.09230769 2.6875 10.625 C2.130625 10.41875 1.57375 10.2125 1 10 C1.33 9.67 1.66 9.34 2 9 C1.34 9 0.68 9 0 9 C0 8.34 0 7.68 0 7 C-0.66 7 -1.32 7 -2 7 C-1.42415568 4.61435923 -0.77772405 2.33317216 0 0 Z " fill="#1B6297" transform="translate(42,60)"/>
<path d="M0 0 C0.99 0 1.98 0 3 0 C2.67 1.32 2.34 2.64 2 4 C1.34 4 0.68 4 0 4 C0 4.99 0 5.98 0 7 C0.99 7 1.98 7 3 7 C3 7.99 3 8.98 3 10 C2.01 10 1.02 10 0 10 C-0.33 11.32 -0.66 12.64 -1 14 C-1.99 14 -2.98 14 -4 14 C-4 14.99 -4 15.98 -4 17 C-4.99 17 -5.98 17 -7 17 C-7 16.01 -7 15.02 -7 14 C-7.99 13.67 -8.98 13.34 -10 13 C-10 12.01 -10 11.02 -10 10 C-9.01 10 -8.02 10 -7 10 C-7 10.99 -7 11.98 -7 13 C-6.01 13 -5.02 13 -4 13 C-4 12.01 -4 11.02 -4 10 C-3.01 10 -2.02 10 -1 10 C-1 9.01 -1 8.02 -1 7 C-1.99 7 -2.98 7 -4 7 C-4 6.01 -4 5.02 -4 4 C-3.01 3.67 -2.02 3.34 -1 3 C-0.67 2.01 -0.34 1.02 0 0 Z " fill="#DFDFDF" transform="translate(14,91)"/>
<path d="M0 0 C-0.99 0.66 -1.98 1.32 -3 2 C0.465 1.505 0.465 1.505 4 1 C3.67 2.32 3.34 3.64 3 5 C1.96939453 5.19916016 1.96939453 5.19916016 0.91796875 5.40234375 C-0.43361328 5.66724609 -0.43361328 5.66724609 -1.8125 5.9375 C-2.70582031 6.11152344 -3.59914063 6.28554687 -4.51953125 6.46484375 C-7.11397171 6.97741153 -7.11397171 6.97741153 -10 8 C-12.06145107 8.068991 -14.12501401 8.08467727 -16.1875 8.0625 C-17.81751953 8.04896484 -17.81751953 8.04896484 -19.48046875 8.03515625 C-20.31191406 8.02355469 -21.14335937 8.01195313 -22 8 C-21.67 7.34 -21.34 6.68 -21 6 C-18.56640625 5.65625 -18.56640625 5.65625 -15.5625 5.5 C-11.27670771 5.45324169 -11.27670771 5.45324169 -8 3 C-7.67 2.01 -7.34 1.02 -7 0 C-2.25 -1.125 -2.25 -1.125 0 0 Z " fill="#829DB6" transform="translate(48,68)"/>
<path d="M0 0 C0 3.45073841 -1.11698494 5.1369171 -2.86328125 8.03515625 C-4.01289305 10.02228592 -4.97310172 12.04268697 -5.9375 14.125 C-8.31185399 18.94849079 -11.53988242 22.02658828 -16 25 C-14.43184651 15.77029662 -6.31299712 6.5300064 0 0 Z " fill="#4B4A4E" transform="translate(114,22)"/>
<path d="M0 0 C3.3 0 6.6 0 10 0 C10 0.99 10 1.98 10 3 C9.01 3 8.02 3 7 3 C7 4.32 7 5.64 7 7 C5.68 7 4.36 7 3 7 C3 7.99 3 8.98 3 10 C2.01 10 1.02 10 0 10 C0 6.7 0 3.4 0 0 Z " fill="#F0F0F0" transform="translate(0,0)"/>
<path d="M0 0 C-0.33 0.99 -0.66 1.98 -1 3 C-1.66 3 -2.32 3 -3 3 C-3 3.99 -3 4.98 -3 6 C-2.01 6 -1.02 6 0 6 C0 6.99 0 7.98 0 9 C-0.99 9 -1.98 9 -3 9 C-3 9.99 -3 10.98 -3 12 C-3.99 12 -4.98 12 -6 12 C-6 11.01 -6 10.02 -6 9 C-7.32 9 -8.64 9 -10 9 C-10 8.01 -10 7.02 -10 6 C-8.68 6 -7.36 6 -6 6 C-6.7763932 2.9254644 -6.7763932 2.9254644 -9 1 C-5.94152152 0.45627049 -3.11227195 0 0 0 Z " fill="#F3F3F3" transform="translate(67,92)"/>
<path d="M0 0 C0.99 0 1.98 0 3 0 C3 0.99 3 1.98 3 3 C3.99 3 4.98 3 6 3 C6 2.01 6 1.02 6 0 C6.99 0 7.98 0 9 0 C9 1.32 9 2.64 9 4 C8.01 4 7.02 4 6 4 C6 4.99 6 5.98 6 7 C3.35261084 8.4606285 2.10551666 9 -1 9 C-1 8.34 -1 7.68 -1 7 C-1.99 7 -2.98 7 -4 7 C-4 6.01 -4 5.02 -4 4 C-3.01 3.67 -2.02 3.34 -1 3 C-0.67 2.01 -0.34 1.02 0 0 Z " fill="#F3F3F3" transform="translate(41,20)"/>
<path d="M0 0 C1.32 0 2.64 0 4 0 C4 3.3 4 6.6 4 10 C2.68 10 1.36 10 0 10 C0 9.01 0 8.02 0 7 C-0.66 7 -1.32 7 -2 7 C-2 7.99 -2 8.98 -2 10 C-3.32 10 -4.64 10 -6 10 C-6 9.01 -6 8.02 -6 7 C-5.01 7 -4.02 7 -3 7 C-3 5.68 -3 4.36 -3 3 C-2.01 3 -1.02 3 0 3 C0 2.01 0 1.02 0 0 Z " fill="#E4E4E4" transform="translate(124,47)"/>
<path d="M0 0 C2.29633824 3.44450737 2.54016485 5.93812283 3 10 C2.01 10 1.02 10 0 10 C0 10.66 0 11.32 0 12 C-0.66 12 -1.32 12 -2 12 C-2.2475 12.5775 -2.495 13.155 -2.75 13.75 C-4.18299988 16.32939979 -5.78424676 18.06121592 -8 20 C-8.66 20 -9.32 20 -10 20 C-10 18.68 -10 17.36 -10 16 C-8.68 16 -7.36 16 -6 16 C-6 15.01 -6 14.02 -6 13 C-5.01 13 -4.02 13 -3 13 C-3 11.68 -3 10.36 -3 9 C-2.01 9 -1.02 9 0 9 C0 8.01 0 7.02 0 6 C-0.99 6 -1.98 6 -3 6 C-3 5.01 -3 4.02 -3 3 C-2.01 3 -1.02 3 0 3 C0 2.01 0 1.02 0 0 Z " fill="#D6D5D7" transform="translate(67,58)"/>
<path d="M0 0 C0.99 0 1.98 0 3 0 C3 0.99 3 1.98 3 3 C2.34 3 1.68 3 1 3 C1 3.99 1 4.98 1 6 C1.99 6 2.98 6 4 6 C3.67 7.32 3.34 8.64 3 10 C2.34 10 1.68 10 1 10 C1 10.99 1 11.98 1 13 C1.66 13 2.32 13 3 13 C3 13.99 3 14.98 3 16 C2.01 16 1.02 16 0 16 C0 15.01 0 14.02 0 13 C-0.99 13 -1.98 13 -3 13 C-3 11.68 -3 10.36 -3 9 C-2.01 9 -1.02 9 0 9 C0 8.01 0 7.02 0 6 C-0.99 6 -1.98 6 -3 6 C-3 5.01 -3 4.02 -3 3 C-2.01 3 -1.02 3 0 3 C0 2.01 0 1.02 0 0 Z " fill="#E0E0E0" transform="translate(94,4)"/>
<path d="M0 0 C2.80045623 3.14591933 3.35261589 5.067064 3.1875 9.25 C3.16042969 10.14203125 3.13335937 11.0340625 3.10546875 11.953125 C3.07066406 12.62859375 3.03585938 13.3040625 3 14 C4.65 14 6.3 14 8 14 C8 15.32 8 16.64 8 18 C5.18178471 17.69532808 3.45861277 17.4076558 1.3125 15.5 C-0.6042908 11.84896991 -1.26715849 8.03493911 -2 4 C-1.34 4 -0.68 4 0 4 C0 2.68 0 1.36 0 0 Z " fill="#203759" transform="translate(70,56)"/>
<path d="M0 0 C0.99 0 1.98 0 3 0 C3 0.99 3 1.98 3 3 C4.32 3.66 5.64 4.32 7 5 C6.2575 5.556875 5.515 6.11375 4.75 6.6875 C2.08292005 8.93027178 0.08443768 11.22074975 -2 14 C-2.33 12.68 -2.66 11.36 -3 10 C-2.34 10 -1.68 10 -1 10 C-1 9.01 -1 8.02 -1 7 C-1.66 7 -2.32 7 -3 7 C-3 6.01 -3 5.02 -3 4 C-2.34 3.67 -1.68 3.34 -1 3 C-0.67 2.01 -0.34 1.02 0 0 Z " fill="#DDDEDF" transform="translate(61,10)"/>
<path d="M0 0 C0.99 0 1.98 0 3 0 C3 0.99 3 1.98 3 3 C4.32 3 5.64 3 7 3 C7 2.01 7 1.02 7 0 C7.99 0 8.98 0 10 0 C10 1.32 10 2.64 10 4 C10.99 4 11.98 4 13 4 C13 4.99 13 5.98 13 7 C9.7 7 6.4 7 3 7 C3 6.01 3 5.02 3 4 C2.01 4 1.02 4 0 4 C0 2.68 0 1.36 0 0 Z " fill="#F2F2F2" transform="translate(101,101)"/>
<path d="M0 0 C0.99 0 1.98 0 3 0 C3 0.99 3 1.98 3 3 C3.99 3 4.98 3 6 3 C6 4.32 6 5.64 6 7 C5.01 7 4.02 7 3 7 C3 7.99 3 8.98 3 10 C1.68 10 0.36 10 -1 10 C-1 9.01 -1 8.02 -1 7 C-1.99 7 -2.98 7 -4 7 C-4 6.01 -4 5.02 -4 4 C-3.01 3.67 -2.02 3.34 -1 3 C-0.67 2.01 -0.34 1.02 0 0 Z " fill="#F3F3F3" transform="translate(14,27)"/>
<path d="M0 0 C0 1.98 0 3.96 0 6 C-0.99 6.495 -0.99 6.495 -2 7 C-2.66 6.01 -3.32 5.02 -4 4 C-7.27773504 4.75150023 -7.27773504 4.75150023 -9 8 C-10.875 7.8125 -10.875 7.8125 -13 7 C-14.1328125 4.44921875 -14.1328125 4.44921875 -15 2 C-12.87528825 1.6648342 -10.75022095 1.33192171 -8.625 1 C-7.44164063 0.814375 -6.25828125 0.62875 -5.0390625 0.4375 C-2 0 -2 0 0 0 Z " fill="#807681" transform="translate(101,48)"/>
<path d="M0 0 C1.32 0 2.64 0 4 0 C4 0.99 4 1.98 4 3 C4.99 3 5.98 3 7 3 C7 2.01 7 1.02 7 0 C7.99 0 8.98 0 10 0 C10 1.32 10 2.64 10 4 C9.01 4 8.02 4 7 4 C7 4.99 7 5.98 7 7 C6.01 7 5.02 7 4 7 C4 7.99 4 8.98 4 10 C2.68 10 1.36 10 0 10 C0 9.01 0 8.02 0 7 C0.99 7 1.98 7 3 7 C3 6.01 3 5.02 3 4 C2.01 4 1.02 4 0 4 C0 2.68 0 1.36 0 0 Z " fill="#E0E0E0" transform="translate(84,20)"/>
<path d="M0 0 C1.32 0 2.64 0 4 0 C4 0.99 4 1.98 4 3 C4.99 3 5.98 3 7 3 C7 2.01 7 1.02 7 0 C7.99 0 8.98 0 10 0 C10 1.32 10 2.64 10 4 C9.01 4 8.02 4 7 4 C7 4.99 7 5.98 7 7 C6.01 7 5.02 7 4 7 C4 7.99 4 8.98 4 10 C2.68 10 1.36 10 0 10 C0 9.01 0 8.02 0 7 C0.99 7 1.98 7 3 7 C3 6.01 3 5.02 3 4 C2.01 4 1.02 4 0 4 C0 2.68 0 1.36 0 0 Z " fill="#F6F6F6" transform="translate(20,20)"/>
<path d="M0 0 C1.32 0 2.64 0 4 0 C4 1.32 4 2.64 4 4 C4.99 4 5.98 4 7 4 C7 4.99 7 5.98 7 7 C6.01 7 5.02 7 4 7 C4 7.99 4 8.98 4 10 C3.01 10 2.02 10 1 10 C1 9.01 1 8.02 1 7 C-0.32 7 -1.64 7 -3 7 C-3 6.01 -3 5.02 -3 4 C-2.01 4 -1.02 4 0 4 C0 2.68 0 1.36 0 0 Z " fill="#F3F3F3" transform="translate(87,13)"/>
<path d="M0 0 C3 1 3 1 4.421875 3.2578125 C7.09012541 9.01809427 8.79381539 12.79063903 7 19 C7.99 19.33 8.98 19.66 10 20 C8.35 20 6.7 20 5 20 C4.96132812 19.05640625 4.96132812 19.05640625 4.921875 18.09375 C4.55362732 12.5365578 3.62620425 8.43269635 0.83984375 3.59375 C0 2 0 2 0 0 Z " fill="#4D536C" transform="translate(68,50)"/>
<path d="M0 0 C1.27617188 0.02320313 2.55234375 0.04640625 3.8671875 0.0703125 C5.78917969 0.09738281 5.78917969 0.09738281 7.75 0.125 C9.23113281 0.15980469 9.23113281 0.15980469 10.7421875 0.1953125 C10.7421875 0.8553125 10.7421875 1.5153125 10.7421875 2.1953125 C11.7321875 2.1953125 12.7221875 2.1953125 13.7421875 2.1953125 C13.4121875 3.1853125 13.0821875 4.1753125 12.7421875 5.1953125 C8.43843343 5.39548711 5.68183455 4.82882469 1.7421875 3.1953125 C-0.58378761 2.8140051 -2.91693408 2.47070996 -5.2578125 2.1953125 C-3.2578125 0.1953125 -3.2578125 0.1953125 0 0 Z " fill="#A89FA8" transform="translate(41.2578125,40.8046875)"/>
<path d="M0 0 C3.16492205 3.75471067 3.28301994 6.09432112 3 11 C2.34 10.01 1.68 9.02 1 8 C0.54109375 8.433125 0.0821875 8.86625 -0.390625 9.3125 C-1.00421875 9.869375 -1.6178125 10.42625 -2.25 11 C-3.15492187 11.8353125 -3.15492187 11.8353125 -4.078125 12.6875 C-6 14 -6 14 -10 14 C-10 13.01 -10 12.02 -10 11 C-9.0925 11.04125 -8.185 11.0825 -7.25 11.125 C-3.86660345 10.35624663 -3.86660345 10.35624663 -2.7109375 7.70703125 C-1.71197501 5.15931756 -0.80667822 2.61458648 0 0 Z " fill="#2768A6" transform="translate(78,70)"/>
<path d="M0 0 C0.99 0 1.98 0 3 0 C3 0.99 3 1.98 3 3 C3.99 3 4.98 3 6 3 C6 2.01 6 1.02 6 0 C6.99 0 7.98 0 9 0 C9 1.32 9 2.64 9 4 C8.34 4 7.68 4 7 4 C7 4.99 7 5.98 7 7 C7.66 7 8.32 7 9 7 C9 7.99 9 8.98 9 10 C8.01 10 7.02 10 6 10 C6 9.01 6 8.02 6 7 C5.01 7 4.02 7 3 7 C3 6.01 3 5.02 3 4 C2.01 3.67 1.02 3.34 0 3 C0 2.01 0 1.02 0 0 Z " fill="#DFDFDF" transform="translate(115,37)"/>
<path d="M0 0 C0 0.99 0 1.98 0 3 C-6.35987804 3.20190089 -11.85221129 2.6277833 -18 1 C-18 0.67 -18 0.34 -18 0 C-12.10926427 -1.17814715 -5.81260782 -1.93753594 0 0 Z " fill="#1F2444" transform="translate(57,33)"/>
<path d="M0 0 C0.99 0 1.98 0 3 0 C3 0.99 3 1.98 3 3 C3.99 3 4.98 3 6 3 C6 4.32 6 5.64 6 7 C2.7 7 -0.6 7 -4 7 C-4 6.01 -4 5.02 -4 4 C-3.01 3.67 -2.02 3.34 -1 3 C-0.67 2.01 -0.34 1.02 0 0 Z " fill="#F1F1F1" transform="translate(14,101)"/>
<path d="M0 0 C0.99 0 1.98 0 3 0 C3 0.99 3 1.98 3 3 C3.99 3 4.98 3 6 3 C6 4.32 6 5.64 6 7 C2.7 7 -0.6 7 -4 7 C-4 6.01 -4 5.02 -4 4 C-3.01 3.67 -2.02 3.34 -1 3 C-0.67 2.01 -0.34 1.02 0 0 Z " fill="#E4E4E4" transform="translate(78,101)"/>
<path d="M0 0 C0.99 0 1.98 0 3 0 C3 0.99 3 1.98 3 3 C3.99 3 4.98 3 6 3 C6 4.32 6 5.64 6 7 C2.7 7 -0.6 7 -4 7 C-4 6.01 -4 5.02 -4 4 C-3.01 3.67 -2.02 3.34 -1 3 C-0.67 2.01 -0.34 1.02 0 0 Z " fill="#F1F1F1" transform="translate(41,101)"/>
<path d="M0 0 C0.99 0 1.98 0 3 0 C3 0.99 3 1.98 3 3 C4.32 3 5.64 3 7 3 C7 2.01 7 1.02 7 0 C7.99 0 8.98 0 10 0 C10.1875 2.375 10.1875 2.375 10 5 C7 7 7 7 3 7 C3 6.01 3 5.02 3 4 C2.01 4 1.02 4 0 4 C0 2.68 0 1.36 0 0 Z " fill="#F4F5F6" transform="translate(24,64)"/>
<path d="M0 0 C1.32 0 2.64 0 4 0 C4 0.99 4 1.98 4 3 C4.99 3 5.98 3 7 3 C7 3.99 7 4.98 7 6 C5.68 6 4.36 6 3 6 C3 7.32 3 8.64 3 10 C2.01 10 1.02 10 0 10 C0 6.7 0 3.4 0 0 Z " fill="#F1F1F1" transform="translate(0,34)"/>
<path d="M0 0 C3.3 0 6.6 0 10 0 C10 0.99 10 1.98 10 3 C8.68 3 7.36 3 6 3 C6 4.32 6 5.64 6 7 C5.01 7 4.02 7 3 7 C3 6.01 3 5.02 3 4 C2.01 4 1.02 4 0 4 C0 2.68 0 1.36 0 0 Z " fill="#F2F2F2" transform="translate(108,0)"/>
<path d="M0 0 C1.32 0.33 2.64 0.66 4 1 C4 2.32 4 3.64 4 5 C4.99 5 5.98 5 7 5 C7 5.99 7 6.98 7 8 C6.01 8 5.02 8 4 8 C4 8.99 4 9.98 4 11 C3.01 11 2.02 11 1 11 C0.67 7.37 0.34 3.74 0 0 Z " fill="#F2F2F2" transform="translate(104,56)"/>
<path d="M0 0 C1.32 0 2.64 0 4 0 C4 0.99 4 1.98 4 3 C4.99 3 5.98 3 7 3 C7 2.01 7 1.02 7 0 C7.99 0 8.98 0 10 0 C10 1.32 10 2.64 10 4 C9.01 4 8.02 4 7 4 C7 4.99 7 5.98 7 7 C5.68 7 4.36 7 3 7 C3 6.01 3 5.02 3 4 C2.01 4 1.02 4 0 4 C0 2.68 0 1.36 0 0 Z " fill="#E0E0E0" transform="translate(111,101)"/>
<path d="M0 0 C0.99 0 1.98 0 3 0 C3 3.3 3 6.6 3 10 C1.68 10 0.36 10 -1 10 C-1 9.01 -1 8.02 -1 7 C-1.66 7 -2.32 7 -3 7 C-3 6.01 -3 5.02 -3 4 C-2.34 3.67 -1.68 3.34 -1 3 C-0.67 2.01 -0.34 1.02 0 0 Z " fill="#F1F1F1" transform="translate(125,64)"/>
<path d="M0 0 C0.99 0.33 1.98 0.66 3 1 C3 1.99 3 2.98 3 4 C3.99 4 4.98 4 6 4 C6 4.99 6 5.98 6 7 C5.01 7 4.02 7 3 7 C3 7.99 3 8.98 3 10 C2.01 10 1.02 10 0 10 C0 9.01 0 8.02 0 7 C-0.66 7 -1.32 7 -2 7 C-1.34 4.69 -0.68 2.38 0 0 Z " fill="#DDDCDD" transform="translate(105,40)"/>
<path d="M0 0 C0.33 1.32 0.66 2.64 1 4 C1.99 4 2.98 4 4 4 C4 3.01 4 2.02 4 1 C4.99 1 5.98 1 7 1 C7 2.32 7 3.64 7 5 C6.01 5 5.02 5 4 5 C4 5.99 4 6.98 4 8 C3.01 8 2.02 8 1 8 C1 7.01 1 6.02 1 5 C-0.32 5 -1.64 5 -3 5 C-3 3.68 -3 2.36 -3 1 C-2.01 0.67 -1.02 0.34 0 0 Z " fill="#F6F6F6" transform="translate(50,73)"/>
<path d="M0 0 C5.03163018 4.29785078 10.02718443 8.63425542 15 13 C14.01 13.495 14.01 13.495 13 14 C12.40832031 13.52949219 11.81664063 13.05898438 11.20703125 12.57421875 C5.33987937 7.9441876 5.33987937 7.9441876 -1 4 C-0.67 2.68 -0.34 1.36 0 0 Z " fill="#596683" transform="translate(68,29)"/>
<path d="M0 0 C0.66 0.33 1.32 0.66 2 1 C2 1.66 2 2.32 2 3 C0.89140625 3.20496094 -0.2171875 3.40992188 -1.359375 3.62109375 C-2.82292867 3.89316462 -4.28646967 4.16530362 -5.75 4.4375 C-6.47960938 4.57220703 -7.20921875 4.70691406 -7.9609375 4.84570312 C-11.33546675 5.47459267 -14.67634694 6.14322173 -18 7 C-18 6.01 -18 5.02 -18 4 C-16.86820313 3.79503906 -15.73640625 3.59007812 -14.5703125 3.37890625 C-13.08851239 3.10693028 -11.60674315 2.83478613 -10.125 2.5625 C-9.37863281 2.42779297 -8.63226563 2.29308594 -7.86328125 2.15429688 C-3.81466622 1.45463389 -3.81466622 1.45463389 0 0 Z " fill="#8A8E9B" transform="translate(56,26)"/>
<path d="M0 0 C1.32 0 2.64 0 4 0 C3.67 1.32 3.34 2.64 3 4 C2.34 4 1.68 4 1 4 C1 4.99 1 5.98 1 7 C1.66 7 2.32 7 3 7 C3 7.99 3 8.98 3 10 C2.01 10 1.02 10 0 10 C0 9.01 0 8.02 0 7 C-0.99 7 -1.98 7 -3 7 C-3 5.68 -3 4.36 -3 3 C-2.01 3 -1.02 3 0 3 C0 2.01 0 1.02 0 0 Z " fill="#E1E1E1" transform="translate(121,91)"/>
<path d="M0 0 C1.32 0 2.64 0 4 0 C4 0.99 4 1.98 4 3 C3.01 3 2.02 3 1 3 C0.67 4.32 0.34 5.64 0 7 C-0.99 7 -1.98 7 -3 7 C-3 7.99 -3 8.98 -3 10 C-3.99 10 -4.98 10 -6 10 C-6 8.68 -6 7.36 -6 6 C-5.01 6 -4.02 6 -3 6 C-3 5.01 -3 4.02 -3 3 C-2.01 3 -1.02 3 0 3 C0 2.01 0 1.02 0 0 Z " fill="#E0DFE0" transform="translate(114,78)"/>
<path d="M0 0 C0.78375 0.04125 1.5675 0.0825 2.375 0.125 C2.045 0.785 1.715 1.445 1.375 2.125 C0.385 2.125 -0.605 2.125 -1.625 2.125 C-1.625 3.445 -1.625 4.765 -1.625 6.125 C-0.635 6.125 0.355 6.125 1.375 6.125 C1.375 7.115 1.375 8.105 1.375 9.125 C-3.375 8.25 -3.375 8.25 -5.625 7.125 C-4.53409091 0.21590909 -4.53409091 0.21590909 0 0 Z " fill="#DAD9D9" transform="translate(52.625,54.875)"/>
<path d="M0 0 C1.32 0 2.64 0 4 0 C4 0.99 4 1.98 4 3 C3.01 3 2.02 3 1 3 C0.67 4.32 0.34 5.64 0 7 C-0.99 7 -1.98 7 -3 7 C-3 7.99 -3 8.98 -3 10 C-3.99 10 -4.98 10 -6 10 C-6 8.68 -6 7.36 -6 6 C-5.01 6 -4.02 6 -3 6 C-3 5.01 -3 4.02 -3 3 C-2.01 3 -1.02 3 0 3 C0 2.01 0 1.02 0 0 Z " fill="#DFDFDF" transform="translate(114,51)"/>
<path d="M0 0 C0.99 0 1.98 0 3 0 C3 1.32 3 2.64 3 4 C2.01 4 1.02 4 0 4 C0 4.99 0 5.98 0 7 C-0.99 7 -1.98 7 -3 7 C-3.33 7.99 -3.66 8.98 -4 10 C-4.99 10 -5.98 10 -7 10 C-7 9.01 -7 8.02 -7 7 C-6.01 7 -5.02 7 -4 7 C-4 5.68 -4 4.36 -4 3 C-2.68 3 -1.36 3 0 3 C0 2.01 0 1.02 0 0 Z " fill="#F7F7F7" transform="translate(108,20)"/>
<path d="M0 0 C1.32 0 2.64 0 4 0 C3.67 1.32 3.34 2.64 3 4 C2.34 4 1.68 4 1 4 C1 4.99 1 5.98 1 7 C1.66 7 2.32 7 3 7 C3 7.99 3 8.98 3 10 C2.01 10 1.02 10 0 10 C0 9.01 0 8.02 0 7 C-0.99 7 -1.98 7 -3 7 C-3 5.68 -3 4.36 -3 3 C-2.01 3 -1.02 3 0 3 C0 2.01 0 1.02 0 0 Z " fill="#E1E1E1" transform="translate(121,10)"/>
<path d="M0 0 C0.99 0 1.98 0 3 0 C3 0.99 3 1.98 3 3 C3.99 3 4.98 3 6 3 C6 2.01 6 1.02 6 0 C7.32 0 8.64 0 10 0 C9.67 1.32 9.34 2.64 9 4 C8.01 4 7.02 4 6 4 C6 4.99 6 5.98 6 7 C5.01 7 4.02 7 3 7 C3 6.01 3 5.02 3 4 C2.01 3.67 1.02 3.34 0 3 C0 2.01 0 1.02 0 0 Z " fill="#F7F7F7" transform="translate(4,91)"/>
<path d="M0 0 C0.33 0.66 0.66 1.32 1 2 C2.97888961 2.72693904 4.97954558 3.39816251 7 4 C7 4.66 7 5.32 7 6 C3.6875 6.6875 3.6875 6.6875 0 7 C-1.75 5.6875 -1.75 5.6875 -3 4 C-3.99 3.34 -4.98 2.68 -6 2 C-4.02 2 -2.04 2 0 2 C0 1.34 0 0.68 0 0 Z " fill="#525668" transform="translate(87,53)"/>
<path d="M0 0 C0.99 0 1.98 0 3 0 C3 0.99 3 1.98 3 3 C3.99 3 4.98 3 6 3 C6 2.01 6 1.02 6 0 C7.32 0 8.64 0 10 0 C9.67 1.32 9.34 2.64 9 4 C8.01 4 7.02 4 6 4 C6 4.99 6 5.98 6 7 C5.01 7 4.02 7 3 7 C3 6.01 3 5.02 3 4 C2.01 3.67 1.02 3.34 0 3 C0 2.01 0 1.02 0 0 Z " fill="#F7F7F7" transform="translate(105,10)"/>
<path d="M0 0 C3.63 0.66 7.26 1.32 11 2 C10.67 3.65 10.34 5.3 10 7 C9.34 7 8.68 7 8 7 C8 6.34 8 5.68 8 5 C6.02 5 4.04 5 2 5 C1.34 3.35 0.68 1.7 0 0 Z " fill="#887679" transform="translate(71,52)"/>
<path d="M0 0 C1.12148438 0.12568359 1.12148438 0.12568359 2.265625 0.25390625 C3.74289063 0.40666016 3.74289063 0.40666016 5.25 0.5625 C6.71179687 0.71912109 6.71179687 0.71912109 8.203125 0.87890625 C10.7631352 0.98974468 12.58148159 0.77738092 15 0 C15 1.32 15 2.64 15 4 C9.72 3.67 4.44 3.34 -1 3 C-0.67 2.01 -0.34 1.02 0 0 Z " fill="#AF9997" transform="translate(43,44)"/>
<path d="M0 0 C0.33 0 0.66 0 1 0 C0.67 4.62 0.34 9.24 0 14 C-1.32 13.34 -2.64 12.68 -4 12 C-3.125 6.25 -3.125 6.25 -2 4 C-1.34 4 -0.68 4 0 4 C0 2.68 0 1.36 0 0 Z " fill="#64575E" transform="translate(68,14)"/>
<path d="M0 0 C0.33 0 0.66 0 1 0 C1 2.31 1 4.62 1 7 C1.66 7 2.32 7 3 7 C3 7.99 3 8.98 3 10 C2.01 10 1.02 10 0 10 C0 10.99 0 11.98 0 13 C-0.99 13 -1.98 13 -3 13 C-4.6875 11 -4.6875 11 -6 9 C-4.35 8.34 -2.7 7.68 -1 7 C-0.67 4.69 -0.34 2.38 0 0 Z " fill="#D1D5DA" transform="translate(81,78)"/>
<path d="M0 0 C0.99 0 1.98 0 3 0 C3 0.99 3 1.98 3 3 C3.99 3 4.98 3 6 3 C6 4.32 6 5.64 6 7 C5.01 7 4.02 7 3 7 C3 6.01 3 5.02 3 4 C2.01 4 1.02 4 0 4 C0 2.68 0 1.36 0 0 Z M6 0 C7.32 0 8.64 0 10 0 C10 0.99 10 1.98 10 3 C8.68 3 7.36 3 6 3 C6 2.01 6 1.02 6 0 Z " fill="#F7F7F7" transform="translate(7,47)"/>
<path d="M0 0 C1 3 1 3 0.0625 5.1875 C-1.3625659 8.95973326 -1.13624461 11.98078413 -1 16 C-1.99 15.67 -2.98 15.34 -4 15 C-3.67 12.69 -3.34 10.38 -3 8 C-3.66 8 -4.32 8 -5 8 C-3.8141763 4.62496331 -2.72426311 2.35277269 0 0 Z " fill="#524854" transform="translate(104,40)"/>
<path d="M0 0 C2.25 0.875 2.25 0.875 4 2 C0.46813168 4.15059309 -2.66287993 4.3797728 -6.75 4.625 C-7.92046875 4.69976562 -9.0909375 4.77453125 -10.296875 4.8515625 C-11.18890625 4.90054688 -12.0809375 4.94953125 -13 5 C-13 4.01 -13 3.02 -13 2 C-12.39671875 2.02320312 -11.7934375 2.04640625 -11.171875 2.0703125 C-10.37265625 2.08835937 -9.5734375 2.10640625 -8.75 2.125 C-7.56664062 2.15980469 -7.56664062 2.15980469 -6.359375 2.1953125 C-3.78536849 1.98223249 -2.27416794 1.15635658 0 0 Z " fill="#22689F" transform="translate(38,70)"/>
<path d="M0 0 C1.32 0.66 2.64 1.32 4 2 C4 3.65 4 5.3 4 7 C-0.43076923 9.09230769 -0.43076923 9.09230769 -3.3125 8.625 C-3.869375 8.41875 -4.42625 8.2125 -5 8 C-4.0409375 7.690625 -4.0409375 7.690625 -3.0625 7.375 C-0.65074923 6.10461791 -0.65074923 6.10461791 -0.25 2.875 C-0.1675 1.92625 -0.085 0.9775 0 0 Z " fill="#366E9A" transform="translate(48,62)"/>
<path d="M0 0 C1.4540625 0.0309375 1.4540625 0.0309375 2.9375 0.0625 C2.9375 0.7225 2.9375 1.3825 2.9375 2.0625 C3.5975 2.3925 4.2575 2.7225 4.9375 3.0625 C1.39075997 4.24474668 -1.03772995 3.95579634 -4.75 3.625 C-5.92949219 3.52316406 -7.10898437 3.42132813 -8.32421875 3.31640625 C-9.67966797 3.19072266 -9.67966797 3.19072266 -11.0625 3.0625 C-11.0625 2.7325 -11.0625 2.4025 -11.0625 2.0625 C-9.928125 1.918125 -8.79375 1.77375 -7.625 1.625 C-3.97252634 1.04829363 -3.54680005 0.07238367 0 0 Z " fill="#515064" transform="translate(49.0625,37.9375)"/>
<path d="M0 0 C1.98 0 3.96 0 6 0 C6 0.99 6 1.98 6 3 C3.35261084 4.4606285 2.10551666 5 -1 5 C-1.33 5.66 -1.66 6.32 -2 7 C-2.33 5.68 -2.66 4.36 -3 3 C-2.01 3 -1.02 3 0 3 C0 2.01 0 1.02 0 0 Z " fill="#E2E1E2" transform="translate(17,34)"/>
<path d="M0 0 C0.66 0 1.32 0 2 0 C2 0.99 2 1.98 2 3 C2.99 2.67 3.98 2.34 5 2 C5.33 1.34 5.66 0.68 6 0 C6.99 0 7.98 0 9 0 C9.33 0.99 9.66 1.98 10 3 C8.73160474 3.50615298 7.46016898 4.00469099 6.1875 4.5 C5.12595703 4.91765625 5.12595703 4.91765625 4.04296875 5.34375 C2 6 2 6 -1 6 C-0.67 4.02 -0.34 2.04 0 0 Z " fill="#E4E4E5" transform="translate(31,27)"/>
<path d="M0 0 C0.33 1.32 0.66 2.64 1 4 C1.66 4 2.32 4 3 4 C3 4.99 3 5.98 3 7 C3.99 7 4.98 7 6 7 C6 7.99 6 8.98 6 10 C4.02 10.99 4.02 10.99 2 12 C-0.13586678 8.79619983 -0.23132175 7.98060033 -0.125 4.3125 C-0.10695313 3.50425781 -0.08890625 2.69601563 -0.0703125 1.86328125 C-0.04710938 1.24839844 -0.02390625 0.63351563 0 0 Z " fill="#DCDDDE" transform="translate(68,20)"/>
<path d="M0 0 C0.66 0.33 1.32 0.66 2 1 C2 5 2 5 -0.3125 7.625 C-3 10 -3 10 -6 12 C-5.36934243 8.78147169 -4.21979305 6.49198931 -2.4375 3.75 C-1.98246094 3.04359375 -1.52742188 2.3371875 -1.05859375 1.609375 C-0.53458984 0.81273437 -0.53458984 0.81273437 0 0 Z " fill="#3A343D" transform="translate(104,35)"/>
<path d="M0 0 C1.32 0.33 2.64 0.66 4 1 C3.09674384 2.32176485 2.17682097 3.63215066 1.25 4.9375 C0.73953125 5.66839844 0.2290625 6.39929688 -0.296875 7.15234375 C-2.19177915 9.20805399 -3.27425729 9.62669176 -6 10 C-6 9.01 -6 8.02 -6 7 C-5.01 7 -4.02 7 -3 7 C-3 6.01 -3 5.02 -3 4 C-2.01 4 -1.02 4 0 4 C0 2.68 0 1.36 0 0 Z " fill="#D8D8D8" transform="translate(111,20)"/>
<path d="M0 0 C0.66 0 1.32 0 2 0 C1.55491959 5.04424468 -0.60980925 7.44443409 -4 11 C-4.66 11 -5.32 11 -6 11 C-6 9.68 -6 8.36 -6 7 C-5.01 7 -4.02 7 -3 7 C-3 6.01 -3 5.02 -3 4 C-2.01 4 -1.02 4 0 4 C0 2.68 0 1.36 0 0 Z " fill="#DADEE1" transform="translate(40,57)"/>
<path d="M0 0 C2.97 0 5.94 0 9 0 C9 0.99 9 1.98 9 3 C9.66 2.67 10.32 2.34 11 2 C13.3329866 1.95977609 15.66706666 1.95679753 18 2 C18 2.33 18 2.66 18 3 C12.73632576 4.8416638 9.13337151 5.48376072 3.9375 3.125 C2.61223545 2.44084634 1.29455545 1.74062038 0 1 C0 0.67 0 0.34 0 0 Z " fill="#C9AFA5" transform="translate(16,41)"/>
<path d="M0 0 C1.32 0 2.64 0 4 0 C4 0.99 4 1.98 4 3 C4.99 3 5.98 3 7 3 C7 3.99 7 4.98 7 6 C5.68 6 4.36 6 3 6 C3 5.01 3 4.02 3 3 C2.01 3 1.02 3 0 3 C0 2.01 0 1.02 0 0 Z M2 6 C2.33 7.32 2.66 8.64 3 10 C2.34 10 1.68 10 1 10 C1.33 8.68 1.66 7.36 2 6 Z " fill="#F8F8F8" transform="translate(20,7)"/>
<path d="M0 0 C0.99 0 1.98 0 3 0 C3 0.99 3 1.98 3 3 C3.99 3 4.98 3 6 3 C5.67 4.65 5.34 6.3 5 8 C2.69 6.35 0.38 4.7 -2 3 C-1.34 2.67 -0.68 2.34 0 2 C0 1.34 0 0.68 0 0 Z " fill="#DADCDE" transform="translate(78,34)"/>
<path d="M0 0 C0.99 0.33 1.98 0.66 3 1 C2.00310315 4.68851835 1.31080309 5.80574807 -2 7.875 C-2.99 8.24625 -3.98 8.6175 -5 9 C-5.66 8.67 -6.32 8.34 -7 8 C-5.68 7.67 -4.36 7.34 -3 7 C-3 5.68 -3 4.36 -3 3 C-2.01 3 -1.02 3 0 3 C0 2.01 0 1.02 0 0 Z " fill="#ACCCDE" transform="translate(54,78)"/>
<path d="M0 0 C1.32 0 2.64 0 4 0 C4 0.99 4 1.98 4 3 C4.66 3 5.32 3 6 3 C6.33 4.32 6.66 5.64 7 7 C5.68 7 4.36 7 3 7 C3 6.01 3 5.02 3 4 C2.01 4 1.02 4 0 4 C0 2.68 0 1.36 0 0 Z " fill="#E2E2E2" transform="translate(118,0)"/>
<path d="M0 0 C1.5625 1.6875 1.5625 1.6875 3 4 C2.7434556 7.50610679 1.9814066 9.0278901 0 12 C-0.66 9.36 -1.32 6.72 -2 4 C-1.34 4 -0.68 4 0 4 C0 2.68 0 1.36 0 0 Z " fill="#393C53" transform="translate(70,56)"/>
<path d="M0 0 C1.98 0 3.96 0 6 0 C6 0.99 6 1.98 6 3 C5.01 3 4.02 3 3 3 C3 3.99 3 4.98 3 6 C2.01 6 1.02 6 0 6 C0 4.02 0 2.04 0 0 Z " fill="#E7E7E7" transform="translate(81,88)"/>
<path d="M0 0 C0.33 0 0.66 0 1 0 C1 1.65 1 3.3 1 5 C0.01 5.33 -0.98 5.66 -2 6 C-2 6.66 -2 7.32 -2 8 C-5 10 -5 10 -8.1875 9.625 C-9.5796875 9.315625 -9.5796875 9.315625 -11 9 C-8.61965269 7.80982635 -6.25911541 6.68040273 -3.8125 5.625 C-0.86106059 4.30620267 -0.86106059 4.30620267 -0.125 1.8125 C-0.08375 1.214375 -0.0425 0.61625 0 0 Z " fill="#3385B7" transform="translate(56,79)"/>
<path d="M0 0 C1.32 0.33 2.64 0.66 4 1 C3.278125 1.556875 2.55625 2.11375 1.8125 2.6875 C-0.97457299 4.97909334 -3.48641528 7.41459857 -6 10 C-6.66 9.67 -7.32 9.34 -8 9 C-7.04882866 7.8274869 -6.08882991 6.66212985 -5.125 5.5 C-4.32449219 4.52546875 -4.32449219 4.52546875 -3.5078125 3.53125 C-2.76144531 2.77328125 -2.76144531 2.77328125 -2 2 C-1.34 2 -0.68 2 0 2 C0 1.34 0 0.68 0 0 Z " fill="#2A699F" transform="translate(67,68)"/>
<path d="M0 0 C0.99 0.33 1.98 0.66 3 1 C2.34 1 1.68 1 1 1 C0.7525 1.5775 0.505 2.155 0.25 2.75 C-1.18299988 5.32939979 -2.78424676 7.06121592 -5 9 C-5.66 9 -6.32 9 -7 9 C-7 7.68 -7 6.36 -7 5 C-5.68 5 -4.36 5 -3 5 C-3 4.01 -3 3.02 -3 2 C-2.01 2 -1.02 2 0 2 C0 1.34 0 0.68 0 0 Z " fill="#C8CED3" transform="translate(64,69)"/>
<path d="M0 0 C2.52588702 2.36292656 3.88820837 3.66462511 5 7 C3.35 7 1.7 7 0 7 C0 6.34 0 5.68 0 5 C-0.66 5 -1.32 5 -2 5 C-2 4.01 -2 3.02 -2 2 C-1.34 2 -0.68 2 0 2 C0 1.34 0 0.68 0 0 Z " fill="#8F7061" transform="translate(62,49)"/>
<path d="M0 0 C4.95 0.99 4.95 0.99 10 2 C9.01 2.33 8.02 2.66 7 3 C7 3.99 7 4.98 7 6 C6.01 6 5.02 6 4 6 C4 5.01 4 4.02 4 3 C2.68 3 1.36 3 0 3 C0 2.01 0 1.02 0 0 Z " fill="#E3E0DF" transform="translate(30,48)"/>
<path d="M0 0 C-0.99 0.495 -0.99 0.495 -2 1 C-2 1.66 -2 2.32 -2 3 C-5.21451269 4.60725635 -8.43612536 4.05748185 -12 4 C-7.96889361 0.80291562 -5.14313574 -0.13900367 0 0 Z " fill="#413941" transform="translate(29,36)"/>
<path d="M0 0 C0.99 0 1.98 0 3 0 C3 0.99 3 1.98 3 3 C4.32 3.33 5.64 3.66 7 4 C3.32589215 5.17571451 -0.16929183 5.07366746 -4 5 C-3.67 4.34 -3.34 3.68 -3 3 C-2.01 3 -1.02 3 0 3 C0 2.01 0 1.02 0 0 Z " fill="#C9CDD4" transform="translate(47,24)"/>
<path d="M0 0 C0.33 1.32 0.66 2.64 1 4 C2.32 3.34 3.64 2.68 5 2 C5 3.98 5 5.96 5 8 C3.68 8 2.36 8 1 8 C1 7.34 1 6.68 1 6 C0.34 5.67 -0.32 5.34 -1 5 C-0.67 3.35 -0.34 1.7 0 0 Z " fill="#958A87" transform="translate(43,55)"/>
<path d="M0 0 C0.99 0.33 1.98 0.66 3 1 C4.1875 4.0625 4.1875 4.0625 5 7 C4.401875 6.649375 3.80375 6.29875 3.1875 5.9375 C0.89186786 4.66695302 0.89186786 4.66695302 -2 6 C-1.125 1.125 -1.125 1.125 0 0 Z " fill="#2B2A40" transform="translate(61,42)"/>
<path d="M0 0 C2.64 0 5.28 0 8 0 C7.34 1.65 6.68 3.3 6 5 C4.35 4.67 2.7 4.34 1 4 C0.67 2.68 0.34 1.36 0 0 Z " fill="#908A90" transform="translate(87,51)"/>
<path d="M0 0 C0 0.66 0 1.32 0 2 C-3.63423209 4.32590854 -6.77088331 4.16265833 -11 4 C-11 3.34 -11 2.68 -11 2 C-3.375 0 -3.375 0 0 0 Z " fill="#C6C2C3" transform="translate(38,31)"/>
<path d="M0 0 C1.32 0 2.64 0 4 0 C4 0.99 4 1.98 4 3 C3.01 3 2.02 3 1 3 C1 3.99 1 4.98 1 6 C-0.32 6 -1.64 6 -3 6 C-3 5.01 -3 4.02 -3 3 C-2.01 3 -1.02 3 0 3 C0 2.01 0 1.02 0 0 Z " fill="#F7F7F7" transform="translate(77,17)"/>
<path d="M0 0 C1.32 0 2.64 0 4 0 C4 0.99 4 1.98 4 3 C3.01 3 2.02 3 1 3 C1 3.99 1 4.98 1 6 C-0.32 6 -1.64 6 -3 6 C-3 5.01 -3 4.02 -3 3 C-2.01 3 -1.02 3 0 3 C0 2.01 0 1.02 0 0 Z " fill="#DFDFDF" transform="translate(40,17)"/>
<path d="M0 0 C1.32 0 2.64 0 4 0 C4 0.99 4 1.98 4 3 C4.99 3 5.98 3 7 3 C7 3.99 7 4.98 7 6 C5.68 5.67 4.36 5.34 3 5 C3 4.34 3 3.68 3 3 C2.01 3 1.02 3 0 3 C0 2.01 0 1.02 0 0 Z " fill="#F8F8F8" transform="translate(10,71)"/>
<path d="M0 0 C0.99 0 1.98 0 3 0 C3 0.99 3 1.98 3 3 C3.99 3.33 4.98 3.66 6 4 C6 4.99 6 5.98 6 7 C5.01 7 4.02 7 3 7 C3 6.01 3 5.02 3 4 C2.01 4 1.02 4 0 4 C0 2.68 0 1.36 0 0 Z " fill="#F8F8F8" transform="translate(17,64)"/>
<path d="M0 0 C2.31 0.33 4.62 0.66 7 1 C7 1.99 7 2.98 7 4 C4.69 3.67 2.38 3.34 0 3 C0 2.01 0 1.02 0 0 Z " fill="#928A97" transform="translate(70,48)"/>
<path d="M0 0 C1.5778125 0.2475 1.5778125 0.2475 3.1875 0.5 C6.20468796 0.89569678 8.97093972 1.09178971 12 1 C10.0373772 3.04795423 8.5722693 3.94976638 5.73046875 4.19921875 C3.48045617 4.18858877 1.24614438 4.12958525 -1 4 C-0.67 2.68 -0.34 1.36 0 0 Z " fill="#A99391" transform="translate(26,40)"/>
<path d="M0 0 C1.32 0 2.64 0 4 0 C4 0.99 4 1.98 4 3 C4.99 3 5.98 3 7 3 C7 3.99 7 4.98 7 6 C5.68 5.67 4.36 5.34 3 5 C3 4.34 3 3.68 3 3 C2.01 3 1.02 3 0 3 C0 2.01 0 1.02 0 0 Z " fill="#F8F8F8" transform="translate(10,17)"/>
<path d="M0 0 C2.97 0.495 2.97 0.495 6 1 C6.33 2.32 6.66 3.64 7 5 C5.68 5 4.36 5 3 5 C3 4.01 3 3.02 3 2 C2.01 2 1.02 2 0 2 C0 1.34 0 0.68 0 0 Z " fill="#E2E2E2" transform="translate(54,93)"/>
<path d="M0 0 C0.33 1.32 0.66 2.64 1 4 C-4.2734375 7.22265625 -4.2734375 7.22265625 -6 8 C-6.66 7.67 -7.32 7.34 -8 7 C-5.36 4.69 -2.72 2.38 0 0 Z " fill="#1B5898" transform="translate(79,77)"/>
<path d="M0 0 C-0.33 1.32 -0.66 2.64 -1 4 C-3.875 4.125 -3.875 4.125 -7 4 C-7.66 3.34 -8.32 2.68 -9 2 C-2.25 0 -2.25 0 0 0 Z " fill="#8B97A9" transform="translate(52,69)"/>
<path d="M0 0 C1.60517097 0.08733576 3.20921662 0.19552224 4.8125 0.3125 C6.15248047 0.39951172 6.15248047 0.39951172 7.51953125 0.48828125 C10.30604 1.06313581 11.24135754 1.8206856 13 4 C11.68 4 10.36 4 9 4 C8.34 4.66 7.68 5.32 7 6 C7 4.68 7 3.36 7 2 C4.69 1.67 2.38 1.34 0 1 C0 0.67 0 0.34 0 0 Z " fill="#CAAB97" transform="translate(36,49)"/>
<path d="M0 0 C0 0.66 0 1.32 0 2 C1.65 2 3.3 2 5 2 C5 2.33 5 2.66 5 3 C0.545 3.495 0.545 3.495 -4 4 C-4.33 3.01 -4.66 2.02 -5 1 C-3 0 -3 0 0 0 Z " fill="#5E5157" transform="translate(33,38)"/>
<path d="M0 0 C5.61 0.33 11.22 0.66 17 1 C17 1.33 17 1.66 17 2 C9.08 2.495 9.08 2.495 1 3 C0.67 2.01 0.34 1.02 0 0 Z " fill="#14527F" transform="translate(45,88)"/>
<path d="M0 0 C1.32 0 2.64 0 4 0 C4.66 2.31 5.32 4.62 6 7 C5.34 7 4.68 7 4 7 C4 6.01 4 5.02 4 4 C2.68 4 1.36 4 0 4 C0 2.68 0 1.36 0 0 Z " fill="#DEDEDE" transform="translate(40,84)"/>
<path d="M0 0 C0.99 0 1.98 0 3 0 C3 0.99 3 1.98 3 3 C3.99 3 4.98 3 6 3 C6 3.99 6 4.98 6 6 C4.68 6 3.36 6 2 6 C1.34 4.02 0.68 2.04 0 0 Z " fill="#CED4D9" transform="translate(78,68)"/>
<path d="M0 0 C0.99 0.33 1.98 0.66 3 1 C2.4375 2.9375 2.4375 2.9375 1 5 C-2.625 5.75 -2.625 5.75 -6 6 C-6 5.34 -6 4.68 -6 4 C-4.02 3.67 -2.04 3.34 0 3 C0 2.01 0 1.02 0 0 Z " fill="#678FB7" transform="translate(92,63)"/>
<path d="M0 0 C0.99 0 1.98 0 3 0 C3 0.99 3 1.98 3 3 C2.01 3 1.02 3 0 3 C0 3.99 0 4.98 0 6 C-0.99 6 -1.98 6 -3 6 C-3 4.68 -3 3.36 -3 2 C-2.01 2 -1.02 2 0 2 C0 1.34 0 0.68 0 0 Z " fill="#F5F5F6" transform="translate(84,58)"/>
<path d="M0 0 C0.33 0.99 0.66 1.98 1 3 C1.66 3 2.32 3 3 3 C3 3.66 3 4.32 3 5 C4.65 5 6.3 5 8 5 C8 5.33 8 5.66 8 6 C5.03 6 2.06 6 -1 6 C-0.67 4.02 -0.34 2.04 0 0 Z " fill="#AB8976" transform="translate(59,51)"/>
<path d="M0 0 C0 1.65 0 3.3 0 5 C0.99 5.33 1.98 5.66 3 6 C1.68 6.33 0.36 6.66 -1 7 C-1.99 5.68 -2.98 4.36 -4 3 C-1.125 0 -1.125 0 0 0 Z " fill="#202C46" transform="translate(61,23)"/>
<path d="M0 0 C1.32 0 2.64 0 4 0 C4 2.31 4 4.62 4 7 C2.68 7.33 1.36 7.66 0 8 C0 7.34 0 6.68 0 6 C0.99 6 1.98 6 3 6 C3 5.01 3 4.02 3 3 C2.01 3 1.02 3 0 3 C0 2.01 0 1.02 0 0 Z " fill="#DBE1E4" transform="translate(47,78)"/>
<path d="M0 0 C0.99 0.33 1.98 0.66 3 1 C3 1.99 3 2.98 3 4 C2.01 4.33 1.02 4.66 0 5 C-0.66 5.66 -1.32 6.32 -2 7 C-2.33 5.68 -2.66 4.36 -3 3 C-2.01 3 -1.02 3 0 3 C0 2.01 0 1.02 0 0 Z " fill="#BECCD2" transform="translate(84,61)"/>
<path d="M0 0 C0.99 0 1.98 0 3 0 C2.25 2.4375 2.25 2.4375 1 5 C-1.125 5.8125 -1.125 5.8125 -3 6 C-3 5.01 -3 4.02 -3 3 C-2.01 3 -1.02 3 0 3 C0 2.01 0 1.02 0 0 Z " fill="#F0F0F0" transform="translate(101,34)"/>
<path d="M0 0 C0.99 0 1.98 0 3 0 C3 0.99 3 1.98 3 3 C2.01 3 1.02 3 0 3 C0 3.99 0 4.98 0 6 C-0.99 6 -1.98 6 -3 6 C-2.67 4.68 -2.34 3.36 -2 2 C-1.34 2 -0.68 2 0 2 C0 1.34 0 0.68 0 0 Z " fill="#F7F7F8" transform="translate(111,31)"/>
<path d="M0 0 C0.66 0.33 1.32 0.66 2 1 C-2.5 5 -2.5 5 -7 5 C-7 4.01 -7 3.02 -7 2 C-6.030625 1.855625 -5.06125 1.71125 -4.0625 1.5625 C-1.13513227 1.32437659 -1.13513227 1.32437659 0 0 Z " fill="#80AFE4" transform="translate(75,79)"/>
<path d="M0 0 C2.375 0.1875 2.375 0.1875 5 1 C6.3125 3.5625 6.3125 3.5625 7 6 C6.01 6 5.02 6 4 6 C3.67 5.01 3.34 4.02 3 3 C2.01 3 1.02 3 0 3 C0 2.01 0 1.02 0 0 Z " fill="#D8D8D8" transform="translate(20,71)"/>
<path d="M0 0 C0.99 0 1.98 0 3 0 C3 0.99 3 1.98 3 3 C2.34 3 1.68 3 1 3 C1.33 4.98 1.66 6.96 2 9 C1.01 8.67 0.02 8.34 -1 8 C-0.67 5.36 -0.34 2.72 0 0 Z " fill="#D5D8DE" transform="translate(95,58)"/>
<path d="M0 0 C0.33 0.66 0.66 1.32 1 2 C1.99 2 2.98 2 4 2 C3.67 2.99 3.34 3.98 3 5 C1.35 5 -0.3 5 -2 5 C-2 4.01 -2 3.02 -2 2 C-1.34 2 -0.68 2 0 2 C0 1.34 0 0.68 0 0 Z " fill="#B2A3AC" transform="translate(51,41)"/>
<path d="M0 0 C0.99 0 1.98 0 3 0 C3 0.99 3 1.98 3 3 C3.99 3.33 4.98 3.66 6 4 C5.01 4.99 4.02 5.98 3 7 C2.67 6.01 2.34 5.02 2 4 C1.34 3.67 0.68 3.34 0 3 C0 2.01 0 1.02 0 0 Z " fill="#D6D6D7" transform="translate(95,37)"/>
<path d="M0 0 C0 1.32 0 2.64 0 4 C-0.99 4 -1.98 4 -3 4 C-3 3.34 -3 2.68 -3 2 C-4.65 2 -6.3 2 -8 2 C-4.91190305 0.23537317 -3.76687864 0 0 0 Z " fill="#262128" transform="translate(38,34)"/>
<path d="M0 0 C1.32 0.66 2.64 1.32 4 2 C4 2.66 4 3.32 4 4 C4.66 4 5.32 4 6 4 C6 4.66 6 5.32 6 6 C5.01 6 4.02 6 3 6 C3 5.01 3 4.02 3 3 C1.68 2.67 0.36 2.34 -1 2 C-0.67 1.34 -0.34 0.68 0 0 Z " fill="#D4D1D1" transform="translate(95,51)"/>
<path d="M0 0 C0.33 0.99 0.66 1.98 1 3 C1.99 3.33 2.98 3.66 4 4 C3.34 4.66 2.68 5.32 2 6 C-0.125 5.625 -0.125 5.625 -2 5 C-2 4.34 -2 3.68 -2 3 C-1.34 3 -0.68 3 0 3 C0 2.01 0 1.02 0 0 Z " fill="#DBDADD" transform="translate(94,41)"/>
<path d="M0 0 C0.66 0 1.32 0 2 0 C2.33 2.31 2.66 4.62 3 7 C2.34 6.34 1.68 5.68 1 5 C-0.31747324 4.30251417 -1.64914193 3.63040043 -3 3 C-2.01 2.67 -1.02 2.34 0 2 C0 1.34 0 0.68 0 0 Z " fill="#5A5468" transform="translate(57,38)"/>
</svg>
